<?xml version="1.0" encoding="utf-8" ?>
<svg baseProfile="tiny" height="438" version="1.2" width="374" xmlns="http://www.w3.org/2000/svg" xmlns:ev="http://www.w3.org/2001/xml-events" xmlns:xlink="http://www.w3.org/1999/xlink"><defs /><rect fill="rgb(254, 254, 254)" height="100%" width="100%" x="0" y="0" /><path d="M 14.7, 72.0 C 14.699999999999998, 67.3333333333333 14.699999999999994, 62.666666666666636 14.7, 58.0 C 15.502999689267769, 56.318222988057116 13.604341745225577, 52.35949469117941 13.3, 56.0 C 13.3, 60.66666666666667 13.299999999999997, 65.33333333333333 13.3, 70.0 C 12.497000310732242, 71.68177701194294 14.395658254774427, 75.6405053088206 14.7, 72.0 " fill="rgb(223, 221, 219)" /><path d="M 293.0, 381.3 C 272.64067876862185, 380.0294070025844 252.31236969876497, 378.6839440242244 232.0, 377.3 C 197.91537333535953, 374.92744544475573 164.41397668078346, 381.2729725173774 130.0, 381.3 C 128.3943186341094, 383.39004058182115 125.26791911816906, 381.808742781245 123.0, 382.3 C 101.97559624216593, 384.64022832851515 79.76070977724406, 387.7268585087577 66.3, 406.0 C 66.29999999999994, 407.99999999999994 66.29999999999997, 409.99999999999994 66.3, 412.0 C 68.94360376179561, 415.83244259018153 72.16755740981861, 419.0563962382044 76.0, 421.7 C 81.68702261027614, 422.51278521740545 85.57324606239976, 427.67308418553256 92.0, 426.7 C 95.71077460724753, 429.86965638655664 101.0926955213568, 429.0048086943777 105.0, 431.7 C 132.63884223345187, 434.8480543530716 162.1901568896279, 433.3789918455398 191.0, 433.7 C 220.33333333333337, 433.70000000000005 249.66666666666663, 433.70000000000005 279.0, 433.7 C 281.77140518383305, 430.8719809196062 287.22272596819784, 434.5138504280313 290.0, 431.7 C 292.6666666666668, 431.7 295.33333333333337, 431.7 298.0, 431.7 C 298.81202559639837, 429.77478512465484 301.1910171884457, 431.6325608077832 302.0, 429.7 C 303.66666666666663, 429.69999999999993 305.3333333333333, 429.7000000000001 307.0, 429.7 C 307.65341086684055, 428.1965931474888 309.34324155012877, 429.19532507215774 310.0, 427.7 C 319.5397943141322, 426.3365120874031 329.4162562964499, 425.78581182535225 337.0, 419.7 Q 338.0, 419.7 339.0, 419.7 C 341.2333333333332, 417.4666666666666 343.46666666666675, 415.2333333333336 345.7, 413.0 C 345.7000000000001, 410.33333333333337 345.7000000000001, 407.6666666666667 345.7, 405.0 C 335.41583010283705, 385.0326080938175 311.3344220178287, 386.49545036244393 293.0, 381.3 " fill="rgb(223, 221, 219)" /><path d="M 266.0, 408.7 C 269.251768708714, 406.5030855770341 272.87054516599585, 405.1922062381568 276.0, 402.7 C 277.0120012006987, 402.06230679482474 277.5337886100222, 400.2411328060492 279.0, 400.7 C 279.5666666666669, 400.1333333333338 280.13333333333327, 399.5666666666663 280.7, 399.0 C 286.36594775459685, 393.8941732389777 290.14855309023943, 388.05565831470926 293.0, 381.7 C 294.4464485359634, 381.66618189235845 293.3939787665273, 380.3909626231101 294.0, 379.9141648793749 C 299.10255559143957, 375.91898946486447 307.60019740169577, 378.38963773029855 313.0, 374.7 C 338.19295803440184, 361.17754301853313 346.7918730824664, 332.80695713003854 343.7, 306.0 C 341.7472461972872, 282.2203196027782 329.75891799336375, 262.58023519542286 326.7, 239.0 C 325.1152819370412, 235.77305776469734 325.2886620236942, 230.3160442078094 326.7, 227.0 C 326.18635823753, 223.01580667989478 329.39588612026193, 220.43873870071306 332.0, 217.94598320261218 C 333.0780127468179, 217.8592220180574 334.34698487746346, 217.944728049585 335.0, 216.85462202917762 C 337.280812587389, 216.24451882522075 340.37020547530034, 217.71825127184704 342.0, 215.7 C 356.1252089459675, 214.4583530337147 361.95615365221096, 195.1193776534837 353.0, 185.3 C 352.75482055862255, 184.1254142749185 352.0702010250471, 183.1328505958754 351.0, 182.3 C 342.5583667813483, 173.45975106008848 328.7848476470584, 171.096652897293 317.3, 175.0 C 281.1310474109888, 188.70695350352625 278.2509843608614, 240.73077017986665 295.3, 270.0 C 296.5503184608721, 275.44859944842517 299.76972369672455, 280.08157644916406 302.3, 285.0 C 304.5613344499603, 291.97263195555104 308.1431625639767, 298.39829752642225 311.3, 305.0 C 312.4707699666081, 311.40066928457594 316.0375441816627, 316.808881113942 315.3, 324.0 C 316.7409335012065, 334.6839115444553 313.9220625334155, 347.9742185726035 304.0, 354.3 C 302.77820034270906, 351.85992677819087 305.024550126032, 347.9832990217428 302.7, 346.0 C 303.3666666666665, 345.3333333333332 304.03333333333325, 344.66666666666663 304.7, 344.0 C 305.729137785669, 329.52968879916136 301.0132997400634, 317.439024503142 294.0, 306.3 C 293.08988549520507, 305.87224391707434 294.41145777645113, 304.5200929004013 293.0, 304.3 C 281.5325577057243, 285.7696066185618 261.99192927668946, 276.9071360550002 244.7, 268.0 C 237.68299154107288, 264.0738484336517 230.78759735207572, 258.174818622884 226.7, 251.0 C 243.22642306411333, 242.81922272988547 258.0297808134538, 227.11598929923312 266.0, 210.7 C 279.54486274154124, 189.24918162783004 277.14594695709025, 158.5127031030312 269.7, 135.0 C 265.184010259835, 121.75349634196975 259.5463771037844, 109.35147911847012 251.9381692511084, 97.0 C 256.3941758057637, 80.45403587284191 255.87676135805918, 59.29008879550692 251.70183374103925, 43.0 C 248.59255795822247, 29.128235965244002 244.23833222309523, 14.440011641542345 232.0, 5.3 C 229.54202345724474, 5.332418006689106 227.76391763167894, 7.006189119477925 225.0, 6.3 C 208.6314118507936, 15.122618395047226 191.45708374644653, 28.62863331341049 181.0, 45.3 C 156.74998186666156, 42.55986254373402 132.12371732822163, 46.65124676054101 110.0, 52.3 C 101.72499297050072, 55.774145487092476 93.43753167185787, 59.218223708709345 85.0, 62.3 C 66.8858997684811, 47.545937238053064 43.10265032507816, 42.38440895663371 19.0, 45.3 C 17.766666666666673, 46.53333333333335 16.533333333333324, 47.76666666666662 15.3, 49.0 C 12.488702003085661, 66.00651703955057 14.870098434198086, 84.19569519975623 18.3, 100.0 C 21.084407222427128, 111.45168330909321 23.50738752941357, 123.04177840811744 32.3, 132.0 C 31.912215799437398, 138.253588087226 29.001344643525872, 143.46207933850005 29.3, 150.0 Q 28.80000000000002, 150.50000000000003 28.3, 151.0 C 24.648046187406177, 178.66638897144406 29.860078153545196, 205.5168088237407 44.3, 227.0 C 52.327120114498186, 236.79631031678292 62.070419816934574, 246.74407691378755 73.0, 251.71157685615648 C 80.05829746667429, 258.5347185518099 90.16203625882147, 261.5305888912462 100.0, 263.7 C 100.43333333333332, 264.1333333333333 100.86666666666669, 264.56666666666666 101.3, 265.0 C 96.67506943704892, 275.1908600562149 93.66604435092141, 289.3138541540132 100.0, 299.7 C 102.01581284147201, 300.8728042825647 103.04704854763484, 297.67448068099964 104.3, 298.0 C 104.32478792976562, 303.5420172531387 105.58635464152705, 308.57174396111935 108.3, 313.0 C 108.45519799970778, 335.14485388299096 119.39950051837886, 352.82071434836644 124.3, 373.0 C 124.60780195531565, 376.598900265208 124.14330972095904, 379.8779058029112 123.3, 383.0 C 119.60580434503778, 391.1107743988608 120.75105710153828, 401.1704550917574 129.0, 406.7 C 138.30312276029306, 408.3035610354015 149.03310955765204, 410.74562682183796 157.0, 404.0868438557051 C 161.0821287763138, 408.0927980282797 165.6943627052991, 411.76321888881574 171.0, 409.7 C 172.56156585911955, 411.2912442062688 176.43445600275857, 411.2872464834236 178.0, 409.7037721228653 C 180.87667128099523, 412.231673927268 184.90142279302844, 409.90519785078556 188.0, 409.7 C 199.80217118673573, 400.9482789773666 211.8531693894499, 390.497351339114 216.0, 376.7 C 217.79176725055345, 380.5909906830751 219.6307707844009, 384.4624154569742 223.0, 387.7 C 222.9966430548906, 388.9808830358875 224.5732697311826, 389.6073154274631 224.3, 391.0 C 216.60068614407302, 392.87598439405593 207.47477424347642, 401.77396320592106 210.3, 410.0 C 211.5936249842147, 411.892514266202 213.46130648527947, 412.3991335038564 215.0, 413.7 C 218.7704136179769, 414.00085199807114 221.82402592928565, 415.36334684683766 225.0, 412.7060590046959 C 225.81212835448048, 414.63352287170574 228.18981999619507, 412.7736523322159 229.0, 414.7 C 230.40473141916843, 414.53903689381735 232.18997756640678, 415.29671760482347 233.0, 413.7 C 244.46821619419265, 416.3715475910556 256.1860711250325, 413.1378251951593 266.0, 408.7 " fill="rgb(172, 29, 27)" /><path d="M 237.7, 62.0 C 237.3714758491842, 58.5266034505862 236.62016265758777, 55.22833185588657 235.7, 52.0 C 236.44113687963429, 46.55493986542295 234.55633403928803, 42.19757957683594 234.7, 37.0 C 234.69999999999996, 31.333333333333336 234.70000000000002, 25.666666666666668 234.7, 20.0 C 234.88681706727587, 18.27264430882405 236.34514233238713, 17.071964557860174 235.7, 15.0 C 234.30588041216305, 13.971337701382923 234.6846955234698, 12.208301805178712 233.0, 11.3 C 226.53479780485912, 24.08026750212546 220.52991745752752, 37.05120655667015 219.3, 52.0 C 217.74545930382695, 53.16799711002491 217.8604474914222, 56.36116821715779 219.0, 57.7 C 223.17602053463574, 55.35695529977144 228.60225170893816, 49.80063749191576 233.3, 53.0 C 232.09625197324434, 56.32981836638413 228.12030501304167, 58.51135433693833 227.3, 62.0 C 229.38922052367303, 64.82104249685699 232.27179559858598, 59.911951706285144 234.0, 62.7 C 235.20157486185246, 62.389994934097594 236.9539046885222, 63.40962997380107 237.7, 62.0 " fill="rgb(212, 156, 127)" /><path d="M 37.0, 95.7 C 38.012001200698755, 95.06230679482509 38.533788610022086, 93.24113280604918 40.0, 93.7 C 41.15916849998364, 92.61286223057209 42.48384803987133, 91.92530345840295 44.0, 91.7 C 47.353973180111204, 91.2054225000798 46.40142209160469, 89.27857070443845 44.0, 88.3 C 42.2594200806274, 86.48172590020627 37.81635768540462, 87.41803395591357 37.7, 84.0 C 41.33057915470742, 81.30534762043155 46.189917020973894, 81.53043780864147 51.0, 81.7 C 50.900194512956006, 78.56889575512135 46.48649150044953, 74.81519303515547 45.0, 71.3 C 37.64522568593753, 63.40895406488479 29.88397940925434, 56.49921825465295 21.0, 52.3 Q 19.946446609406728, 52.85857864376269 20.3, 54.0 C 17.598693547056058, 58.230654281710976 22.941133324618292, 59.602090148252614 24.0, 62.72116325737809 C 25.43586115198047, 68.30769316573927 28.087516681662287, 73.33791780381121 30.0, 78.72476729914622 C 30.84846456263488, 80.79617061401444 31.74861899136056, 82.8750360260597 32.0, 85.16813075105806 C 27.2857413500588, 90.72979229510325 34.32600913056687, 90.81621573986885 36.3, 94.0 Q 35.94644660940672, 95.14142135623733 37.0, 95.7 " fill="rgb(212, 156, 127)" /><path d="M 255.7, 79.0 C 255.69999999999985, 74.66666666666664 255.70000000000016, 70.33333333333337 255.7, 66.0 C 256.5029996892675, 64.31822298805706 254.60434174522564, 60.359494691179414 254.3, 64.0 C 254.29999999999987, 68.33333333333334 254.3000000000002, 72.66666666666671 254.3, 77.0 C 253.49700031073215, 78.68177701194284 255.39565825477453, 82.64050530882061 255.7, 79.0 " fill="rgb(212, 156, 127)" /><path d="M 248.7, 90.0 C 248.69999999999987, 87.66666666666664 248.6999999999999, 85.33333333333331 248.7, 83.0 C 244.8402560259991, 77.35946778297924 243.24619710658538, 70.78045808828256 239.0, 65.3 C 235.89187516502497, 64.7547331591542 234.52456289676925, 68.4121596264325 232.3, 70.0 C 231.80203221813662, 70.5984728452517 230.77834294751474, 70.97918471982865 231.3, 72.0 C 238.13784759879587, 78.04012628434886 242.93970659536524, 84.92358666057655 248.0, 91.7 Q 249.05355339059335, 91.14142135623734 248.7, 90.0 " fill="rgb(212, 156, 127)" /><path d="M 35.7, 125.0 C 37.795378008837574, 117.9586266357729 40.606238706861866, 111.21361590505012 44.7, 105.0 C 45.68529998670234, 104.46343706300797 46.39309318381688, 102.92413282235938 45.0, 102.3 C 42.96620212765543, 101.75634018916722 39.869063202317435, 100.02831986230566 38.0, 102.3 Q 37.0, 102.3 36.0, 102.3 C 33.61807682746366, 108.54154398272875 32.877745424725376, 115.46372914331958 31.299999999999997, 122.0 C 32.65709381297249, 123.32363857368749 34.33839324753665, 129.53730815278172 35.7, 125.0 " fill="rgb(212, 156, 127)" /><path d="M 28.7, 179.0 C 28.699999999999996, 174.3333333333334 28.699999999999992, 169.66666666666666 28.7, 165.0 C 29.50299968926777, 163.31822298805707 27.60434174522557, 159.35949469117935 27.3, 163.0 C 27.3, 167.66666666666666 27.299999999999994, 172.33333333333326 27.3, 177.0 C 26.49700031073223, 178.6817770119429 28.395658254774407, 182.64050530882048 28.7, 179.0 " fill="rgb(212, 156, 127)" /><path d="M 275.7, 179.0 C 275.69999999999993, 175.0 275.7, 171.0 275.7, 167.0 C 276.5029996892678, 165.3182229880571 274.6043417452255, 161.3594946911794 274.3, 165.0 C 274.29999999999995, 169.00000000000003 274.3, 172.99999999999997 274.3, 177.0 C 273.4970003107324, 178.6817770119429 275.3956582547742, 182.6405053088205 275.7, 179.0 " fill="rgb(212, 156, 127)" /><path d="M 286.7, 238.0 C 286.7000000000001, 235.0000000000001 286.7, 231.99999999999997 286.7, 229.0 C 287.5029996892678, 227.31822298805713 285.60434174522544, 223.35949469117924 285.3, 227.0 C 285.30000000000007, 230.00000000000014 285.30000000000007, 232.99999999999991 285.3, 236.0 C 284.49700031073235, 237.68177701194296 286.3956582547743, 241.64050530882045 286.7, 238.0 " fill="rgb(212, 156, 127)" /><path d="M 326.7, 237.0 C 326.69999999999976, 234.9999999999999 326.69999999999993, 232.99999999999991 326.7, 231.0 C 327.50299968926777, 229.3182229880571 325.60434174522544, 225.3594946911793 325.3, 229.0 C 325.2999999999999, 230.99999999999991 325.2999999999999, 232.99999999999997 325.3, 235.0 C 324.49700031073223, 236.68177701194296 326.39565825477433, 240.64050530882045 326.7, 237.0 " fill="rgb(212, 156, 127)" /><path d="M 176.7, 45.0 C 172.70403465132256, 43.38887180471292 167.47687815005935, 44.75010198787186 163.0, 44.3 C 161.1629986684203, 44.68542557304512 158.66637851935727, 43.478390450925325 157.3, 45.0 C 161.29596534867753, 46.61112819528714 166.52312184994048, 45.249898012128064 171.0, 45.7 C 172.8370013315796, 45.31457442695485 175.33362148064285, 46.521609549074704 176.7, 45.0 " fill="rgb(223, 221, 219)" /><path d="M 335.1114145846139, 339.0 C 335.3042677389413, 337.132034499847 336.4312735433412, 336.896949288186 337.7, 336.0 Q 337.7, 335.0 337.7, 334.0 C 337.14848953293074, 331.9668190306249 338.2937217060668, 330.63645187467944 338.7, 329.0 C 338.2431691342874, 324.3393699389203 340.4854465310369, 320.7967471264656 339.7, 316.0 C 338.576447813061, 315.1545436765638 339.2998761332333, 313.8040278987935 339.0, 312.6943192941469 C 338.71143610598796, 311.2339318014944 337.88317304950834, 309.8673696067319 336.664344412947, 309.0 C 334.7921333375888, 307.5603221756295 332.25518875831426, 307.3471305163698 330.0, 307.76734117632003 C 323.7576579117935, 307.34197635215173 327.39136521835877, 316.26796683564186 323.0, 316.3 C 322.1014743405223, 316.53689270621794 320.7628692046172, 315.7113395719226 320.3, 317.0 C 321.9423496864841, 322.12110417104384 320.4848377831676, 328.52621305406245 322.0, 333.7 C 323.2816562682527, 334.7257179115645 324.5578354684518, 335.3023242496339 326.0184157966195, 336.0 C 325.47280815995487, 340.9891592664132 332.7897927842686, 343.60921403528846 335.1114145846139, 339.0 " fill="rgb(228, 95, 3)" /><path d="M 314.0, 368.7 C 314.66666666666674, 368.03333333333336 315.3333333333335, 367.36666666666673 316.0, 366.7 C 318.7758872428895, 365.30510315264496 321.28149536592633, 363.2576947885148 323.7, 361.0 C 325.44957087225237, 358.70100671299787 327.5870802938604, 356.5627028345067 328.7, 354.0 C 326.439395867712, 352.0358782575078 323.95542745849457, 350.5128192087151 321.0, 350.2585117378832 C 319.19546414220144, 349.2602241723514 317.58021301802995, 348.4257136230761 317.0, 346.3 Q 315.94644660940685, 346.85857864376277 316.3, 348.0 C 315.13740789157225, 349.40740683312526 314.7725218926297, 351.14523435558675 313.0, 352.3 C 311.0844990744283, 354.96731530938 308.2663053162572, 355.4553373396414 306.3, 358.0 C 307.5067091542519, 361.6083234170958 308.6525676414931, 366.8287053206477 313.19486947826147, 368.0 L 314.0, 368.7 " fill="rgb(228, 95, 3)" /><path d="M 246.7, 156.0 C 254.3969225708725, 152.29922580377692 260.40530465909296, 144.2974780578082 263.7, 137.0 C 263.7, 135.66666666666669 263.70000000000016, 134.33333333333343 263.7, 133.0 C 255.58311836359042, 110.92370393817104 243.01078605510904, 90.75568308991991 226.7807288879062, 72.0 C 228.24954046719742, 70.50672618702873 228.05267536265356, 68.38598378973337 229.7, 67.0 C 229.23713079538305, 65.71133957192258 227.89852565947743, 66.53689270621831 227.0, 66.3 C 217.8225165556765, 72.0475259937755 228.16829424637825, 55.540805419407086 222.0, 59.3 C 220.17254384820293, 60.439216878204434 218.17918954708693, 65.18410576562171 216.0, 62.3 C 215.26330122485635, 60.79706260114416 215.9285168132634, 58.71343325961998 215.7, 57.0 C 215.8369420453009, 53.45026536697193 214.17055666182125, 49.785472270670056 210.0, 49.91349395018962 C 204.17671699947667, 49.595469773639856 197.91674293344033, 52.611022851045036 193.0, 49.3 Q 191.8585786437627, 48.94644660940672 191.3, 50.0 C 190.57746096468776, 50.53986685942439 190.14784421141184, 51.78691066486257 189.0, 51.3 C 184.66666666666654, 51.29999999999997 180.33333333333348, 51.30000000000003 176.0, 51.3 L 175.3, 52.0 C 176.80381732009968, 55.554513467049134 172.64856862501406, 56.21480428069193 172.92208666570286, 59.0 C 174.55312208431403, 61.89009120124407 178.0514977938513, 62.66847099906632 180.83757011119508, 64.0 C 183.02831042450293, 65.90338522571956 183.82655640865886, 68.68553328628954 186.0, 70.7 C 185.7968285512461, 72.5350534340469 188.63220578546765, 73.11149879367444 188.3, 75.0 C 207.7490267127131, 101.8678478353647 224.94018150877244, 129.67093684070903 244.0, 156.7 C 244.89852565947734, 156.46310729378158 246.23713079538288, 157.28866042807743 246.7, 156.0 " fill="rgb(233, 135, 3)" /><path d="M 345.0, 200.0395466370102 C 346.18777676420103, 199.43395467446587 346.29075908469724, 198.09711965521726 346.63917148205627, 197.0 C 348.2567753054067, 196.30865162312924 350.5269569078004, 197.46039386819447 351.7, 196.0 C 351.19961924549085, 190.92791383934954 348.61224668996994, 185.28867799801074 343.7, 183.0 C 342.40363953910423, 181.4474230920352 340.7336856349518, 180.79678054159265 339.0, 180.3 C 336.89839546697067, 178.26915266672282 334.03673122296385, 178.0732517959006 331.0, 178.3 C 327.5607599519816, 176.32559276858052 322.8645589117456, 178.74129356052492 319.0, 179.3 Q 318.0825220883125, 179.67358124937715 318.0, 180.58776836438318 C 312.80137461686957, 180.5085809684682 312.5879276291432, 187.28352346750415 317.0, 188.8593331434216 C 317.71923559897766, 190.72494228331036 316.49317003500033, 193.2857882643276 318.0, 194.7 C 324.63705364397833, 194.44699493111628 330.5083946040934, 195.84791694788694 337.0, 196.40752791116864 C 338.0877718709164, 197.31601277865872 339.1733523618857, 198.23401316677675 340.36965862767465, 199.0 C 341.7095711796786, 199.83224528332465 343.3958883862409, 200.72731745305413 345.0, 200.0395466370102 " fill="rgb(233, 135, 3)" /><path d="M 202.0, 254.7 C 206.10258452939877, 252.47625644137298 210.8145444761062, 251.72367527978946 215.0, 249.7 C 219.29671555880432, 247.2782635387748 224.19349296498993, 246.30520452776003 228.0, 242.7 C 247.8491213040023, 233.64187376918412 260.110667158356, 212.46797269428868 267.7, 193.0 C 269.76038299115737, 178.73870080895327 253.75519965428532, 190.99590738513209 248.0, 186.3 C 246.19486537032796, 187.1056957550329 245.5431987901844, 185.12667330112973 244.0, 185.3 C 234.1125002151221, 191.57159954511755 223.8489472648032, 196.93532643805446 214.0, 203.3 C 207.93810292040024, 206.81723389762587 201.76059546363498, 210.05535965474724 196.0, 214.3 C 171.3427510950493, 227.83905655782036 147.43862476832814, 243.0196412400938 123.0, 257.1973988757592 C 119.68339650180395, 255.76839473963278 114.05582539963021, 251.33750546993224 111.32411821657516, 257.0 C 110.44265847732984, 262.07267144897395 117.23573195002776, 263.1166121541008 121.0, 262.7 Q 121.49999999999996, 263.2 122.0, 263.7 C 150.4117837253198, 264.91308527092895 177.24103167617682, 262.3055912122092 202.0, 254.7 " fill="rgb(233, 135, 3)" /><path d="M 298.0, 237.7 C 299.4975544158599, 235.04751514330508 299.4693376536077, 231.76303517155824 300.7, 229.0 C 300.88449782613145, 223.9955412727723 303.0436464458454, 219.80900968519705 303.7, 215.0 C 300.4993373729944, 213.0976235872381 297.93972700014245, 211.13150574061163 295.7, 208.0 Q 295.7, 207.0 295.7, 206.0 L 295.0, 205.3 C 293.2164285002094, 208.6387505555848 293.1250987900395, 212.6784506112449 291.3, 216.0 C 291.15045232764913, 221.74279318001538 289.65730195366797, 226.92904789857425 290.3, 233.0 C 291.97018759982757, 235.1295709028687 294.1100414242446, 236.12526723654494 296.3, 237.0 Q 296.8585786437628, 238.05355339059332 298.0, 237.7 " fill="rgb(233, 135, 3)" /><path d="M 159.0, 391.7 C 165.01676469446045, 383.09100620717123 166.25343916874175, 372.5020342157771 167.7, 362.0 C 156.76607488646184, 354.50714777963776 145.55210535236733, 347.6903825974505 134.7, 340.0 C 133.69999999999987, 338.9999999999997 132.70000000000007, 338.00000000000006 131.7, 337.0 C 126.79526697328401, 334.0988147609037 122.29147749583504, 328.8017908298412 119.7, 324.0 C 117.08217535254369, 321.7306660377156 116.4222529185851, 318.6503424247998 114.0, 316.3 C 110.90957658588368, 319.4442614859986 114.48985117987169, 324.8145040261628 115.0, 328.7 C 115.84831406297987, 330.2384470368112 115.53105211307872, 332.6263982618671 117.0, 334.22460852451246 C 118.33944593872813, 335.2807379134755 119.99282036213171, 333.16733943499867 121.0, 334.83429070774747 C 126.91121342767072, 347.33737110147763 133.80329021442122, 359.34807680371944 140.0, 371.7 C 141.70607357834353, 375.1565582517021 143.1996228781722, 378.6862924912616 145.27668100846307, 382.0 C 149.16228178438791, 386.0401992502309 153.26365250441035, 389.0113542322093 158.3, 391.0 L 159.0, 391.7 " fill="rgb(233, 135, 3)" /><path d="M 261.7, 405.0 C 263.7344930972879, 404.0832737032809 265.7494187120256, 403.1193073248071 267.7, 402.0 C 278.33577199319944, 395.91187281879445 286.0466458873969, 384.749546049416 292.0, 374.7 L 292.7, 374.0 L 292.15121150671416, 373.0 C 295.4273049219449, 369.04562584207673 288.8305204970269, 365.2475759888846 286.0, 368.754802345795 C 284.7370167645182, 369.8326055547206 283.9530237138135, 371.38997927242326 283.6270033945802, 373.0 C 284.01127265994216, 375.27307419149446 280.7458774497423, 373.1089745060833 280.297229416318, 375.0 C 272.25898259692224, 382.9919044900643 264.32212891918687, 391.08768817293384 256.2060232080087, 399.0 C 256.0773803037204, 401.65119237472476 258.11434044354723, 403.4475454441874 259.0, 405.7 C 259.89852565947734, 405.46310729378155 261.2371307953828, 406.28866042807755 261.7, 405.0 " fill="rgb(233, 135, 3)" /><path d="M 215.7, 56.0 C 213.65622847929112, 46.965398573583954 218.42534374976674, 37.201455711236456 221.0, 28.7 C 223.12526021437714, 23.755234648400375 224.51527569413864, 18.505920956059487 227.7, 14.0 Q 228.05355339059327, 12.858578643762696 227.0, 12.3 C 216.4565459749994, 16.841826711955676 206.99751688360885, 24.001686806008003 198.3, 33.0 C 193.06112172573776, 37.15350648333785 190.60291530693314, 42.45880496171542 186.3, 47.0 C 194.52678160684624, 51.387221787733246 204.30396470160116, 52.03144327623367 212.0, 57.7 C 213.97390494267282, 60.421647816603425 214.50243781406436, 57.15136275946914 215.7, 56.0 " fill="rgb(246, 183, 19)" /><path d="M 256.0, 399.7 Q 256.50000000000006, 399.2 257.0, 398.7 C 266.0071575085688, 399.20408435803114 272.63279690473775, 391.8639620541504 277.7, 385.0 C 278.9437982185105, 381.76765119525606 279.57881870725043, 378.28313839837057 280.7, 375.0 C 282.6669999317471, 361.83412605234577 292.120788513682, 347.17181229377184 284.7, 334.0 C 282.09921795073336, 328.3632339896726 276.61230149656683, 323.92194399268584 274.7, 318.0 C 269.2359331520189, 313.9903733136903 264.49300276471587, 308.2397692036895 259.0, 304.3 C 258.2333333333334, 303.5333333333334 257.4666666666665, 302.76666666666654 256.7, 302.0 C 242.18413556996254, 288.71211173873286 227.21337558319271, 276.5227777548663 215.0, 261.3 C 212.8287727751325, 260.713379088522 210.83152568752334, 259.70673297009245 209.0, 258.3 C 203.09699400498695, 260.1927428860712 196.66615926885183, 260.81119446671494 191.3, 264.0 C 191.84711147388524, 268.04952138230226 193.46606669959425, 271.65507054585396 193.3, 276.0 C 193.01535320352897, 282.80342152006637 194.32434330668926, 291.97841167310753 188.0, 295.3 C 186.42434147678802, 294.6765167550676 187.14698485413672, 293.1010456924952 186.0, 292.3 Q 184.9464466094068, 292.85857864376277 185.3, 294.0 C 185.0805268491861, 302.4075352045488 184.8343908433424, 310.80402629293224 180.0, 317.3 C 178.34634340956, 318.4575036350083 177.24465452823898, 315.4094166952794 176.3, 317.0 C 175.71215463655037, 319.83738670692077 174.26252927264028, 322.3178124498689 173.3, 325.0 C 172.5208468916252, 334.46080697211164 174.74276041922664, 342.67853144201706 174.3, 352.0 C 174.3, 354.3333333333333 174.29999999999993, 356.6666666666666 174.3, 359.0 C 173.83757748662083, 367.996279530713 176.0799862992008, 375.87218124228144 175.3, 385.0 C 175.52009290040147, 386.41145777645124 176.8722439170741, 385.0898854952049 177.3, 386.0 Q 177.85857864376274, 387.0535533905934 179.0, 386.7 C 180.06785948852024, 386.06476818168807 180.3349965972701, 387.36265119231194 181.0, 387.7 C 183.47544325143667, 386.8855117875761 184.71754155928514, 389.04858166504755 187.0, 388.7 C 192.6508908995955, 388.2666815500289 197.7795705876964, 389.0940924892716 203.0, 389.7 C 204.71294368036527, 386.7225187354799 206.77640624393624, 383.8902271462512 208.7, 381.0 C 209.82728184007368, 375.782580374107 215.6535952698844, 370.5544070177894 212.7, 365.0 C 208.44006545835012, 340.7052011173981 226.26865314474708, 314.3159520576533 252.0, 316.7 C 253.63698315472902, 316.97501250587885 255.0908660301829, 317.69206818925727 256.3, 319.0 C 254.79706260114412, 319.73669877514357 252.71343325962013, 319.07148318673677 251.0, 319.3 C 237.54013650173317, 319.64358963865413 225.5696769460638, 328.85564611351754 220.3, 341.0 C 216.6647994685713, 354.00951183625386 217.18865668497145, 370.3235960433602 225.3, 381.0 C 226.4124943888503, 384.2261955045833 228.39607201150233, 387.09157651976983 231.0, 389.7 C 235.4214056577945, 390.24580562658355 237.59235791599102, 389.97665583709556 242.0, 390.7 C 243.8281334230625, 392.44825595429455 245.81743188549547, 393.80742508476015 248.0, 394.7 C 250.45292059963344, 396.08604548938195 252.83223466450968, 397.6497928732538 255.3, 399.0 L 256.0, 399.7 " fill="rgb(246, 183, 19)" /><path d="M 300.0, 372.7 C 303.10054056306524, 373.08079757837845 305.2503933610081, 371.1664318606162 308.0, 370.7 C 309.45930549700876, 370.3374570393599 310.8120891508709, 369.7177476003068 312.0, 368.7 C 312.763333296892, 369.28866042807743 314.77524283248295, 367.7702140749683 313.0, 367.3 C 312.52585161902766, 366.1604650541014 311.4298728349981, 366.5221615007596 310.7, 366.0 C 307.8032291473137, 364.12235171400977 308.1146510074074, 360.91582649567886 307.0, 358.3 L 306.7, 358.0 C 306.0897681049347, 357.19112609710703 302.86146258119106, 358.351134899206 303.3, 360.0 C 304.0837024687465, 361.4626913788777 301.4948949353844, 361.5284433756434 302.3, 363.0 C 296.4224201273333, 360.3589104412334 298.80171753309384, 369.195149769065 297.3, 373.0 C 297.92413282235947, 374.39309318381703 299.4634370630079, 373.68529998670226 300.0, 372.7 " fill="rgb(246, 183, 19)" /><path d="M 303.0, 214.7 C 304.99251141653815, 212.13245432202 306.91651463910745, 209.57598164156704 308.8756506004792, 207.0 C 311.9165865702912, 203.01638010607272 314.82637594008753, 198.99467643173594 317.7, 195.0 C 318.118008271834, 190.03507350792015 316.7127088467136, 184.31490823938242 318.7, 180.0 C 316.56307970904544, 179.4744363735886 313.3614299792945, 182.07560568167082 311.0, 183.3 C 303.1553092979116, 189.4907403605737 295.0132980160754, 197.5307272116298 295.3, 208.0 C 297.53333333333336, 210.2333333333334 299.76666666666677, 212.46666666666667 302.0, 214.7 L 303.0, 214.7 " fill="rgb(249, 214, 87)" /><path d="M 299.7, 254.0 C 299.69999999999993, 252.33333333333317 299.69999999999993, 250.66666666666669 299.7, 249.0 C 297.48273215638653, 245.78370139356022 299.8768132306643, 240.65731952449556 298.0, 237.3 C 295.3582308773812, 236.807266107788 292.51813168308144, 233.2492531089685 290.3, 234.0 C 289.76540950400414, 237.35950582121495 290.8876956002874, 240.0327108867294 291.3, 243.0 C 292.4628802083054, 247.52714786178794 293.1602934320531, 256.1869624186432 299.7, 254.0 " fill="rgb(249, 214, 87)" /><path d="M 180.7, 301.0 C 179.94907816083827, 295.9137774988656 182.25839462541865, 291.99888779321384 181.7, 287.0 C 184.8393280885582, 284.82314405518605 184.78778513649286, 289.8892399602011 187.0, 289.7 C 189.202248064184, 281.6235398708085 189.63853300494137, 271.4568380927053 185.0, 264.3 C 180.99620340919543, 265.56266999898173 176.50519156250422, 266.0498657183748 172.0, 266.3 C 159.47443532263193, 267.73060228601645 154.05323894582602, 282.22154332929654 145.0, 289.86767798532304 C 140.03711421839617, 295.3331866396953 135.0221218516605, 300.7509627896626 130.0, 306.16197531626693 C 129.32894561766764, 306.88427345481995 128.6676117460026, 307.6154374864837 128.0, 308.3408882629059 C 124.41116280523396, 311.9814649466525 118.57638274307249, 318.93066677684925 124.72759885102113, 323.0 Q 123.72087460301451, 324.0705943820176 125.0, 324.7 C 126.33333333333326, 326.0333333333332 127.6666666666667, 327.3666666666667 129.0, 328.7 C 140.0473554352199, 340.3413087846506 153.5500754149036, 346.0548431854863 165.3, 356.0 C 168.80387754677042, 360.2610167356834 167.4859835802628, 352.2613228255085 167.7, 350.0 C 156.46741742453574, 335.5866677005908 172.33866118714573, 321.44168582132284 175.0, 307.7 C 177.10048729240083, 307.7187402523228 178.07736508202203, 311.1145087628842 179.7, 308.0 C 179.53637660199334, 305.4608204486332 179.60810961813567, 303.0191287159981 180.7, 301.0 " fill="rgb(249, 214, 87)" /><path d="M 146.0, 391.7 C 147.27433043077812, 392.451647596322 147.533669373067, 393.6237184328693 147.3, 395.0 C 150.47158256676204, 397.25645511344135 145.77570052265207, 401.1439099209835 149.0, 402.7 C 151.78483280424555, 402.79810416898454 153.80880482533163, 401.0593279161877 155.7, 399.0 Q 156.19999999999996, 398.5 156.7, 398.0 C 157.6341208880345, 395.97271197834687 158.6991558059503, 393.99965032337525 159.7, 392.0 C 159.03333333333336, 391.33333333333354 158.36666666666667, 390.6666666666666 157.7, 390.0 C 150.95978568108083, 379.9637336522135 137.62929857021368, 381.1833511704649 128.3, 385.0 C 127.2822523996931, 386.187910849129 126.66254296064022, 387.54069450299136 126.3, 389.0 C 126.28557650497127, 393.7501711341844 125.22712436610435, 398.93279309215285 130.0, 401.7 C 132.30683137667324, 403.4144764907013 133.99143488036987, 401.0334054898473 131.7, 399.0 C 132.66257420857343, 396.65116439627525 133.32909829969117, 394.1797008187578 134.7, 392.0 C 136.02821048404994, 391.46626943011444 134.9518116753962, 395.0695041252142 135.3, 396.0 C 134.97691766979014, 399.34148655767945 137.11724903623406, 403.92250781996506 141.0, 403.7 C 146.6648484795305, 402.7207918014694 142.74242697460016, 393.65227929062615 146.0, 391.7 " fill="rgb(252, 232, 145)" /><path d="M 187.0, 404.7 C 188.77984056658448, 402.5018214432973 191.326726137107, 402.15545333805215 193.0, 399.7 C 193.50916678040758, 398.7659525600333 192.7569419819596, 396.218607201408 191.72699004706683, 395.0 C 191.4769098494411, 393.54746580110634 190.79288686306003, 392.15578429372056 189.81245359386685, 391.0 C 188.87974917397258, 390.0946562921619 187.91388449707628, 389.22483577161955 187.0, 388.3 C 183.98347219311827, 388.4779728429885 181.97615373443764, 386.21949879027494 179.0, 386.3 C 177.63218172786893, 386.22513679422843 176.26317086753892, 386.1541969914403 174.90138886244293, 386.0 C 173.93386668291072, 384.82995938694245 171.89000434055373, 383.5664256734598 170.59007543317213, 385.0 C 169.7639438423887, 387.122023614885 167.84848137935145, 387.06726562526444 166.3, 388.0 C 164.65786285431295, 390.53875593947697 163.33134805967617, 393.20824693734767 162.3, 396.0 C 162.0214587630499, 399.35471718174307 161.87450208516844, 404.1275559686552 166.0, 404.7 C 167.54605460443247, 401.29646565845763 167.34290385036547, 394.0315282743216 172.3, 394.0 C 173.08370246874645, 395.4626913788779 170.49489493538454, 395.5284433756432 171.3, 397.0 C 169.56318350749146, 399.81893571265704 170.26151781970424, 404.9350231465275 174.0, 405.7 C 175.90846688841407, 401.5489815233912 175.56444011216146, 395.48125056992694 181.0, 393.7 C 181.53206010759484, 394.2398914096352 181.53206010759504, 395.7601085903648 181.0, 396.3 C 176.44711000638088, 400.81973318386815 180.79714670440498, 409.1940076631849 187.0, 404.7 " fill="rgb(252, 232, 145)" /><path d="M 248.7, 81.0 C 251.5244931214042, 57.912462305385894 246.38739915225293, 34.848742178622224 235.7, 16.0 L 235.0, 15.3 C 233.143128437259, 30.802360632989693 234.3888838902095, 47.5025027170329 237.3, 62.0 C 238.581203885851, 62.60737916177324 238.30414432382543, 63.860212177406915 238.3, 65.0 C 241.36358788510415, 70.16557301268331 243.4015786458549, 75.7559622638045 247.0, 80.7 C 246.88149239219712, 82.31779082705202 249.01065033868514, 83.5801770581312 248.7, 81.0 " fill="rgb(252, 232, 145)" /><path d="M 32.7, 120.0 C 33.919876323939775, 114.42440908875386 35.62703433346672, 109.05065686037405 35.7, 103.0 C 31.274357274728057, 101.80674382600937 35.06774650831707, 97.10647318758133 36.7, 95.0 C 37.83798153024451, 81.14792074186563 35.33560230076985, 68.80372828233783 26.7, 59.0 C 25.253199854209623, 57.13586193005541 23.03426478275805, 57.13582246962389 21.7, 55.0 Q 21.0, 53.599999999999994 20.3, 55.0 C 17.65166149756958, 70.11002565913975 21.082664469007256, 85.96862474872552 24.3, 100.0 C 25.15881928410477, 107.94074688165392 28.25992517420056, 114.95270824037875 32.0, 121.7 Q 33.05355339059327, 121.14142135623727 32.7, 120.0 " fill="rgb(252, 232, 145)" /><path d="M 339.7, 315.0 C 340.22165705248534, 313.97918471982894 339.1979677818633, 313.5984728452519 338.7, 313.0 C 339.25913260207034, 307.65645952986705 337.6469876747918, 303.21174086035205 337.7, 298.0 Q 337.47813684595553, 297.34808749615377 337.0, 296.8955996606376 C 335.83818812301683, 295.3538619346751 336.1754651026716, 292.7806753379224 333.83252910045854, 292.0 C 331.77357893689754, 290.86246432422877 329.2560133718716, 291.1815305747389 327.1477848013119, 292.0 C 322.53891295573885, 292.8472855248018 322.6670888142927, 298.47162803316354 322.0, 301.09602286515917 C 319.91029886105036, 301.5328217716873 318.13975271337966, 302.21586116641487 316.3, 303.0 C 316.74496307753185, 307.7013083416949 318.93727123235976, 311.67884265422856 320.3, 316.0 C 320.87241053731765, 317.3575375903654 322.5130643819877, 316.1361077002051 323.0, 317.7 C 328.76952588470857, 319.8770915678445 335.02882878953125, 318.376292439202 339.7, 315.0 " fill="rgb(246, 183, 19)" /><path d="M 334.7, 343.0 C 335.19818541093093, 340.9302127788686 336.0919575217498, 339.02428293392495 336.7, 337.0 C 334.35817761406884, 335.4191067005692 330.8194215957177, 336.72786680978555 328.0, 336.3 C 325.84533043036936, 336.47005520390934 324.1809419470065, 335.45646715997543 322.7, 334.0 C 320.5317494901408, 333.2042155125169 320.9676736930177, 339.3236681354266 320.0, 341.3 C 313.9327396501956, 347.0169362260691 320.87644335796153, 353.04864118609964 327.3, 353.0 C 331.4319935639663, 353.9759755538232 332.5522562956544, 346.0343803269999 334.7, 343.0 " fill="rgb(246, 183, 19)" /><path d="M 115.0, 262.7 C 116.55533810201199, 260.15508669441573 120.44319859132908, 263.2413805708022 122.0, 260.7 C 150.90396284206975, 260.6299062489127 178.04511380023712, 256.3040081397953 203.0, 246.7 C 226.19836976565892, 234.62185807091674 242.7236219061895, 210.72227498624994 243.7, 185.0 C 242.83687141278517, 184.014055091784 241.8694111937868, 183.11144001873933 241.15998500844722, 182.0 C 241.6676332144584, 180.61751066211013 240.33089931957747, 173.98372162478404 243.0, 176.82556673809788 Q 244.1593670951295, 177.05320222136336 244.7, 176.0 C 244.70000000000005, 172.66666666666677 244.7000000000002, 169.33333333333346 244.7, 166.0 C 243.81324577494198, 163.70111815455348 237.10385670428505, 157.46879805140668 242.0, 157.7 C 242.56666666666672, 157.13333333333347 243.13333333333338, 156.5666666666666 243.7, 156.0 Q 243.7, 155.0 243.7, 154.0 C 242.0947389441677, 151.05544519222641 242.3447380881055, 147.34241644797677 241.7, 144.0 C 239.50400395880055, 139.36067676213122 239.30611175156884, 133.89371181720347 237.0, 129.3 C 236.37746565799137, 126.0022272488925 234.74807986171078, 123.1215060254398 233.7, 120.0 C 232.33463293150766, 116.54186428676525 230.67154467574636, 113.20704872710311 228.7, 110.0 C 222.9396465180024, 96.93758701864368 214.3765219586699, 85.0361198297465 203.0, 74.3 C 195.19785977446256, 65.87142718455854 186.22911785047194, 60.259280011409594 176.7, 56.0 C 168.199464134073, 53.46894160317287 158.7529971853742, 53.22156285544345 150.0, 51.3 Q 149.0, 51.3 148.0, 51.3 C 145.83772998556026, 51.70489536159321 142.9883322409589, 50.450917637948294 141.3, 52.0 C 133.90902108633315, 52.39751476026132 127.20347647727117, 54.44981431481456 120.0, 55.3 C 119.39262083822683, 56.58120388585086 118.13978782259309, 56.30414432382546 117.0, 56.3 C 109.24468921095158, 58.75266082418803 101.3682978979506, 60.91300740531049 94.0, 64.3 C 89.08872660677616, 65.37613378996458 85.19275220672354, 68.9034161791071 80.0, 69.3 C 78.38763528520036, 67.46462661773221 82.43660348740367, 66.87419880075366 81.7, 65.0 C 65.1962348906019, 54.05280045343889 45.1740513865064, 48.068669095608286 24.3, 50.0 C 36.1971761527754, 57.85362196803951 52.37613151828802, 69.1409573420473 55.3, 84.0 C 51.97150180755906, 85.14974425017606 47.3566575780322, 83.19397445171445 44.3, 85.0 C 47.03389932384406, 86.03294815308364 48.9985745598373, 88.92296753156069 51.3, 91.0 C 47.538212006116865, 93.90842798922077 42.38236578010737, 93.45130168770426 39.3, 98.0 C 42.240876746666025, 99.97813215349856 51.0216174095693, 97.17631369819912 50.0, 102.20493594498716 C 49.17873420353819, 103.54577381307661 48.62777634833951, 104.92026381835767 48.0, 106.3 C 45.67844933046935, 111.63821387248132 43.09726489462627, 116.86888391770603 41.0, 122.3 C 40.04727123316079, 123.70675450885699 40.090440527973925, 125.52602350159137 39.3, 127.0 C 39.30414432382549, 128.13978782259323 39.58120388585082, 129.3926208382267 38.3, 130.0 C 38.75952157444129, 132.32841125579435 36.49736782337116, 133.52946767938556 37.3, 136.0 C 35.703282395176515, 136.8100224335932 36.460963106182426, 138.59526858083146 36.3, 140.0 Q 36.80000000000001, 140.49999999999994 37.3, 141.0 C 39.74241911262528, 164.71203592737365 41.927069721343074, 188.89719892503047 49.22857557303291, 211.0 C 51.12845451006756, 215.3859466182328 52.54765487091845, 220.0031461738389 55.29111585483894, 224.0 C 55.649416336262725, 228.88348058180267 60.04958494517365, 232.07781652857363 60.3, 237.0 C 76.33924485017312, 250.86366483975834 95.36690482844672, 257.5126573472563 115.0, 262.7 " fill="rgb(246, 183, 19)" /><path d="M 131.0, 383.7 C 135.4518223569319, 382.84798662030624 140.07057338174474, 382.3989746945597 145.0, 382.7 C 149.16371299712614, 368.6395656256224 141.93471934338248, 355.5730787108848 132.7, 345.0 C 131.6999999999999, 343.9999999999998 130.70000000000005, 343.00000000000006 129.7, 342.0 C 124.84255821344333, 337.220442998259 119.93393273509204, 332.46208697583165 116.0, 327.3 C 114.71133957192255, 327.7628692046172 115.53689270621834, 329.1014743405226 115.3, 330.0 C 119.62184484112103, 343.3380920226189 124.57542522987484, 356.41451061357526 128.3, 370.0 C 130.15771443383073, 374.40082594867954 128.8153974398203, 380.78789932952935 129.0, 384.7 C 130.02081528017138, 385.2216570524852 130.4015271547483, 384.19796778186344 131.0, 383.7 " fill="rgb(246, 183, 19)" /><path d="M 230.0, 298.7 C 235.10702429832142, 295.91223255663874 239.44713061947508, 291.30612686810633 244.0, 286.96873116170747 C 249.0903026188554, 287.2276309365352 257.78970912126437, 280.05173769770664 250.18268664594737, 277.0 C 249.57448565310688, 276.57005841724975 249.9524565822864, 275.50996724045325 249.0, 275.3 L 248.0, 275.3 C 241.37109475218372, 272.48497824539226 235.39024961744107, 268.1054009765695 230.0, 262.3 C 227.80942496942095, 262.9260401078689 222.16206956554484, 260.34826841798065 223.61833318521198, 266.0 C 223.81888749198552, 267.06587910536473 224.43645349924807, 267.97191456117025 225.0, 268.8708447044075 C 226.35094312915072, 270.05428863956826 226.88312943464814, 272.8278350877677 225.3, 274.0 C 227.18380651662042, 275.8291775001777 227.5616018618155, 278.28216525264526 227.3, 281.0 C 225.3353316848669, 286.624110571302 224.2102237558539, 292.5959784409664 219.3, 297.0 C 219.0512801304388, 303.19502308458345 227.08370479954857, 300.0707337920945 230.0, 298.7 " fill="rgb(228, 95, 3)" /><path d="M 251.0, 306.7 C 254.95549922871868, 305.2472775195133 259.112147841572, 304.3152861535185 262.7198353943853, 302.0 C 266.4136734451121, 299.0396585484549 276.7939383009369, 291.89980825453233 270.0, 288.3 C 265.05901253302744, 284.01945995495714 259.3173678817611, 281.6718773430487 254.0, 278.3 C 251.64609756788946, 277.71272866481263 247.60915789578448, 276.5049418893647 247.53907091814855, 281.0 C 249.56138378822246, 288.0431651506966 242.50713124888705, 292.30728508640976 244.3, 298.0 C 241.82665436587834, 301.41340952690535 236.53210119088897, 303.65823662811437 236.3, 308.0 C 240.96848688135412, 309.7737455775486 246.61074718642277, 307.91264404862375 251.0, 306.7 " fill="rgb(228, 95, 3)" /><path d="M 284.0, 333.7 C 288.82283675287744, 330.8914717079894 301.97708841317535, 332.0256510041833 296.7, 323.0 C 295.15888438681884, 321.69889211536224 295.2342877729063, 319.72820013739323 294.0, 318.3 C 293.37167703253795, 316.95078418642464 292.853983499266, 315.5557441608097 292.0, 314.3 C 289.55674849432296, 310.75708208003675 286.3229894695768, 298.8793332666255 281.0, 306.3 C 277.2247805865908, 309.0817452979823 275.8084173556217, 313.00561093332254 272.3, 316.0 C 272.937693205175, 317.0120012006986 274.7588671939509, 317.53378861002204 274.3, 319.0 C 271.58104362175004, 321.54851615869353 269.14296251283787, 324.775125201958 266.0, 326.3 C 263.11210704548046, 329.55287071172745 256.43813775384746, 329.6560462138661 256.3, 335.0 C 265.17679487212314, 338.38348326037317 275.39374394425386, 335.9517936682135 284.0, 333.7 " fill="rgb(228, 95, 3)" /><path d="M 292.7, 373.0 C 294.4273989248875, 368.301298499944 295.98537114826723, 363.5324181622953 295.7, 358.0 C 296.1333333333335, 357.5666666666669 296.56666666666666, 357.1333333333334 297.0, 356.7 C 301.91127735122177, 359.2014312855325 298.85144891361875, 350.1695405341727 299.7, 347.0 Q 299.7, 346.0 299.7, 345.0 C 300.184682141919, 343.95852510131726 299.10082859122576, 343.1922568358285 298.2581799698394, 343.0 C 298.22560862136174, 334.491321116116 288.075818288431, 341.06889871938705 290.21462530169794, 347.0 C 287.92606365099175, 348.4559884991093 283.85731435265285, 348.82764198071493 283.3, 352.0 C 283.22204912681246, 353.17035949633095 283.080871742469, 354.3669082710838 284.3, 355.0 C 283.8722439170743, 355.9101145047951 282.5200929004013, 354.5885422235488 282.3, 356.0 C 279.9406644477008, 356.94531311322487 277.7266235441626, 358.24139853802853 275.0, 358.3 C 271.7152202704003, 361.02669447688487 266.53799282666546, 359.18461601622255 263.0, 361.3 C 260.1018044585519, 361.06628516085084 257.39023702055107, 361.28313042016475 255.3, 363.0 C 255.02787915954954, 366.0033108609149 259.1816652349527, 367.4468729338092 261.3, 369.0 C 262.7282001373934, 370.23428777290644 264.6988921153621, 370.1588843868188 266.0, 371.7 C 270.13964918848336, 373.16759488931393 274.4373108214158, 374.2537139922136 279.0, 374.7 C 283.8854233188627, 374.9028799661616 288.62038175494826, 374.7425055716619 292.7, 373.0 " fill="rgb(228, 95, 3)" /><path d="M 194.0, 399.7 C 197.3047305376761, 396.96429470903234 199.31901290560813, 393.69406828461706 202.0, 390.7 C 207.39930235180805, 384.4210313682168 210.14119317208386, 377.04132683926616 213.7, 370.0 C 213.70000000000002, 368.6666666666668 213.7000000000001, 367.3333333333334 213.7, 366.0 C 206.70760182935697, 341.71684498131214 226.56488937989678, 314.9514363427621 251.7, 316.0 C 249.04319500354927, 314.84620865746285 245.7009650626426, 315.34717951182137 243.0, 314.3 C 241.32045053101572, 314.60223149725675 239.05414683166126, 313.48791297377403 238.0, 315.3 C 222.85589386563015, 317.06542480147084 211.381126932863, 331.827258319773 206.3, 345.0 C 202.86687885917968, 360.53464055723197 200.17208367129086, 376.3751057376204 187.3, 388.0 C 189.54928895985273, 391.2870574734564 193.05131458794844, 393.8436277823689 193.0, 398.7 Q 193.50000000000003, 399.2 194.0, 399.7 " fill="rgb(233, 135, 3)" /><path d="M 234.0, 389.7 L 234.7, 389.0 C 228.37238739516073, 377.0499285485193 227.23429339963562, 359.3148459446507 235.7, 348.0 C 236.26745441766926, 346.6302316654948 234.51699994301546, 346.22057263053495 234.0, 345.3 C 226.7710909702005, 348.1104334939081 235.06092566771952, 340.1260876523253 237.7, 339.0 C 238.26745441766934, 337.6302316654948 236.51699994301543, 337.2205726305349 236.0, 336.3 C 234.14803447812926, 335.28637407084625 233.23980309409345, 338.2293047565235 231.7, 337.0 C 233.85626813428897, 331.11338401949547 240.4304046529782, 325.8014386986112 246.0, 323.7 C 247.15916849998396, 322.6128622305724 248.4838480398713, 321.9253034584028 250.0, 321.7 Q 251.05355339059332, 321.1414213562374 250.7, 320.0 C 242.4721965851925, 318.79259020665756 234.44422227821985, 323.87482353139217 228.0, 329.3 C 227.48300005698457, 330.22057263053506 225.7325455823307, 330.63023166549476 226.3, 332.0 C 221.02576763031402, 337.25324425436366 219.28586837092178, 343.97045721695554 218.3, 351.0 C 216.91231897686433, 366.228300380743 221.77093806965138, 378.86929853881884 231.0, 389.7 C 231.9999999999998, 389.6999999999997 233.0000000000001, 389.6999999999999 234.0, 389.7 " fill="rgb(249, 214, 87)" /><path d="M 172.0, 386.7 C 173.6442859584829, 386.269816858732 179.52903271579262, 387.83981426615725 178.0, 385.3 C 177.32900884709727, 384.96901887708424 176.15947917037917, 385.8416162197284 175.7, 385.0 C 185.4764204730593, 371.38688689928443 188.53301580491936, 351.31674515440466 182.7, 335.0 C 182.6431712101619, 331.00320015364196 180.17241111377155, 328.00628339309526 177.0, 325.3 C 175.6666666666667, 325.30000000000007 174.33333333333343, 325.3000000000001 173.0, 325.3 C 171.09797095586288, 327.5896838341511 171.55606295584047, 330.85696181361646 169.3, 333.0 C 169.29999999999998, 334.3333333333334 169.30000000000013, 335.6666666666668 169.3, 337.0 C 174.80775831078455, 349.16163956765126 173.04865852100826, 364.10501372658894 170.3, 377.0 C 169.80181458906878, 379.0697872211311 168.9080424782502, 380.9757170660746 168.3, 383.0 C 168.63011574436524, 384.8143126441997 165.65674374674145, 386.393275371854 167.0, 387.7 C 169.0972222254723, 388.4061197360903 169.88205472168374, 385.94385038868006 172.0, 386.7 " fill="rgb(249, 214, 87)" /><path d="M 235.7, 375.0 C 236.13561582747028, 370.23762894214036 236.11685448996155, 365.2870487001141 237.7, 361.0 C 238.0991324129631, 358.4106261183336 236.03682143973182, 359.82932707474083 235.3, 361.0 C 231.934460765697, 364.54875704603484 233.75766416379085, 370.24676166207223 233.3, 375.0 C 234.03682143973205, 376.17067292525905 236.0991324129632, 377.58937388166663 235.7, 375.0 " fill="rgb(249, 214, 87)" /><path d="M 241.7, 385.0 C 241.24464322942524, 379.5252984522035 242.6182001584765, 373.293036045612 241.0, 368.3 C 239.3724619989347, 369.2353273949299 239.34589075904094, 370.83379693524546 239.0, 372.3 C 237.0787338198633, 375.8968113833979 239.4787455637667, 380.1608744097284 240.0, 383.7 C 239.85166663552002, 385.1634699270257 241.4762030458866, 388.3939537243947 241.7, 385.0 " fill="rgb(249, 214, 87)" /><path d="M 255.7, 407.0 C 259.7736216574137, 407.47245420790665 258.8364607979567, 403.2794881027024 257.7, 401.0 C 255.12245583221707, 397.6548560899278 251.70761869992737, 396.3311162104496 249.0, 393.3 C 248.8572526351945, 396.3115437700435 249.04923403226516, 397.83334575915114 245.0, 396.3 C 240.51861546207545, 396.32409389271595 236.76437855390893, 394.5926981158239 232.0, 395.3 C 230.33333333333326, 395.2999999999999 228.66666666666669, 395.2999999999999 227.0, 395.3 C 224.68892559230804, 397.4837209647211 221.45914368779628, 397.44948583076564 219.3, 400.0 C 217.02185580717762, 402.08005104891316 215.39018558840536, 404.42788038559945 214.3, 407.0 C 216.30636053647666, 409.252698658586 218.9170472442244, 410.0464248783913 222.0, 409.7 C 221.64207562623594, 405.72769361812965 222.94171878994052, 398.79228913529533 229.0, 398.7 C 229.40765937032327, 402.3447868973019 224.04241020348587, 409.01784163670555 231.0, 409.7 C 232.40962997380117, 408.9539046885224 231.38999493409733, 407.2015748618523 231.7, 406.0 C 233.4576512823375, 403.4056503274021 236.26293422810173, 398.18513564778596 240.3, 400.0 C 238.98166361751478, 401.8681407529776 237.9970938318149, 403.8745321570114 237.3, 406.0 Q 236.80000000000007, 406.50000000000006 236.3, 407.0 C 241.3444203846296, 412.7119932557406 250.09043896281614, 408.4644795093682 255.7, 407.0 " fill="rgb(252, 232, 145)" /><path d="M 155.0, 334.7 C 157.30091555147774, 335.3740751889019 156.09066122795377, 332.55412755366683 157.7, 332.0 C 157.69999999999985, 330.99999999999983 157.70000000000002, 330.0 157.7, 329.0 C 160.7966141896063, 319.0400189076526 168.26862871450956, 310.89238797499706 166.7, 299.0 C 168.52058254009307, 297.79707501825015 169.60961195816535, 300.87489424233246 171.0, 301.7 C 172.0045743104785, 297.4869346661383 172.50376491886033, 291.0124868151728 170.7, 287.0 C 172.31168062126625, 283.61175493672096 174.73694908731412, 289.5400654124377 176.7, 287.0 C 175.06192725006258, 283.7357029075956 176.72945500101403, 279.10218125593616 174.7, 276.0 C 174.3600666183508, 273.20134614417975 173.39646561554815, 270.6610238754548 172.0, 268.3 C 171.0898854952051, 267.8722439170743 172.41145777645104, 266.52009290040144 171.0, 266.3 C 154.0744706342398, 269.24652361103347 134.58557974859102, 268.8671541624514 117.0, 267.0795687021328 C 116.47000486291597, 266.54750293940924 115.84553590436019, 265.94355543108566 115.0, 266.3 C 114.56727802686925, 267.10888425249914 113.02178482051995, 267.3157861616463 113.0, 268.35861168567783 C 106.11607993925176, 268.56927372233383 108.16348437316981, 276.78867651773805 109.86996974405722, 281.0 C 109.66106352734909, 282.92689073947537 111.45712223246802, 284.03126137461385 111.06202953383196, 286.0 C 112.17965208472684, 292.3308288390733 111.67561621403016, 299.3704604353079 115.0, 304.7 C 115.77845120232743, 306.1284520188366 116.0851563970426, 307.7523076320211 117.3, 309.0 C 119.64550577593788, 313.99160784040635 121.57506136027244, 319.1555078914467 125.0, 323.7 C 127.95678799534332, 324.9995851535753 130.28758039586208, 327.8104573621616 133.0, 329.7 C 134.92204738812507, 328.7386636864131 132.52875710041073, 323.97528551415724 134.3, 324.0 C 136.54443588131406, 326.09066331992534 137.3450668670152, 328.77937020903374 140.0, 330.7 C 140.76666666666674, 331.4666666666668 141.53333333333327, 332.2333333333332 142.3, 333.0 C 143.53333333333333, 334.23333333333335 144.76666666666674, 335.46666666666675 146.0, 336.7 C 150.8320486537028, 339.85670061871656 147.6368896596141, 330.11642589151 149.0, 327.7 C 151.4614451720436, 329.8421964847812 152.22186187908446, 332.6889820297495 155.0, 334.7 " fill="rgb(252, 232, 145)" /><path d="M 334.7, 300.0 C 335.4666666666668, 299.2333333333336 336.2333333333331, 298.4666666666665 337.0, 297.7 C 336.9480921922854, 293.53355990039387 335.4616922237914, 287.4266289715814 333.7, 283.0 Q 333.7, 282.0 333.7, 281.0 C 331.65233613128726, 280.3306548529323 332.55470904045706, 278.45965344682355 331.50408551555097, 277.0 C 330.68728989020116, 275.79643832794955 329.42564738043336, 274.8821852983993 328.0, 274.5562536554863 C 322.9279027137861, 273.87883119557074 314.863346239944, 275.7488679521412 314.5075280339149, 282.0 C 315.1269762727778, 285.5239091647362 310.06413372296413, 284.3025429408272 308.3, 286.0 C 309.0889932509777, 290.6935273966661 312.14070546919083, 294.4498059092651 314.0, 298.7 C 314.32865285848527, 300.506676570285 314.93926456740485, 302.1965619606881 316.0, 303.7 Q 316.5, 303.2 317.0, 302.7 C 323.0047731950507, 304.75015736775026 329.64905938579096, 303.19344979897045 334.7, 300.0 " fill="rgb(228, 95, 3)" /><path d="M 203.7, 123.0 C 200.0711472922318, 118.0311789673203 194.96604950190576, 116.62632883433835 189.0, 117.3 C 187.82880944186306, 118.28293133870777 186.8217798512214, 119.33386037656445 187.3, 121.0 C 192.73374625027847, 121.29031120096703 198.91770129435017, 123.43330793623048 203.7, 123.0 " fill="rgb(172, 29, 27)" /><path d="M 94.7, 133.0 C 89.20294014408489, 130.9827379188655 81.86039805443974, 137.24482109651055 81.3, 143.0 Q 81.85857864376273, 144.05355339059332 83.0, 143.7 C 86.71026690873931, 141.47192696240126 89.37938221342974, 136.73029160182105 94.0, 136.7 C 95.35753759036517, 136.1275894626824 94.1361077002052, 134.4869356180123 95.7, 134.0 Q 95.19999999999996, 133.5 94.7, 133.0 " fill="rgb(172, 29, 27)" /><path d="M 173.7, 97.0 C 173.7, 92.99999999999999 173.69999999999996, 89.0 173.7, 85.0 C 172.41362278292036, 81.42741113058085 171.7612696377661, 75.51865609128632 173.7, 72.0 C 173.60934062222714, 66.01963861458815 173.60176364885052, 60.073691087871694 175.7, 55.0 C 175.69999999999987, 53.99999999999996 175.70000000000002, 52.99999999999999 175.7, 52.0 C 172.961443490818, 48.62936070587073 167.83928621066778, 51.013242720295636 164.0, 50.3 C 161.00000000000009, 50.300000000000004 157.99999999999997, 50.299999999999976 155.0, 50.3 C 152.4964216875022, 49.45530944446986 146.43596181229617, 51.427635921306134 152.0, 51.7 C 152.25649739241436, 56.20658117837698 152.51559161286255, 60.71208671536316 153.3, 65.0 C 157.87602519764488, 76.4484083193758 160.47578897209522, 88.71541092303336 171.0, 97.7 C 171.89852565947746, 97.46310729378166 173.23713079538288, 98.28866042807742 173.7, 97.0 " fill="rgb(228, 95, 3)" /><path d="M 146.0, 102.7 C 146.5666666666665, 102.13333333333324 147.13333333333338, 101.5666666666667 147.7, 101.0 C 149.13732417355988, 85.46545766262551 149.47968917087178, 67.50947568958541 147.7, 52.0 C 142.7152680536765, 50.33104507387532 137.105211044964, 52.95563644725534 132.0, 53.3 C 128.13252789252465, 53.48187944806829 124.7675136685483, 54.876799533000614 121.0, 55.3 C 120.75968749648646, 58.93940421338974 123.741771202813, 63.71574389973555 125.0, 67.7 C 131.42386048569261, 79.60531146731171 135.890802149121, 92.32120525126876 146.0, 102.7 " fill="rgb(228, 95, 3)" /><path d="M 116.0, 56.3 Q 115.49999999999999, 56.8 115.0, 57.3 C 107.65938779229565, 58.46960136574631 101.1515015310067, 61.64958100506883 94.3, 64.0 C 93.82177985122144, 65.66613962343557 94.82880944186294, 66.71706866129226 96.0, 67.7 C 104.93501200669354, 78.76377076479478 113.28686990932493, 90.06909186844538 115.3, 104.0 C 117.225214875345, 104.81202559639833 115.36743919221666, 107.19101718844585 117.3, 108.0 C 118.91125725980037, 110.17109278967912 120.4162104178923, 106.877183883087 121.7, 106.0 C 126.92863014235716, 89.48660347997898 121.82778111337925, 70.91993497376684 116.0, 56.3 " fill="rgb(228, 95, 3)" /><path d="M 269.7, 164.0 C 269.8620973920777, 155.0472389786119 267.26739183027973, 147.2363831295096 265.7, 139.0 C 264.4187961141492, 138.39262083822683 264.6958556761747, 137.13978782259306 264.7, 136.0 Q 265.0535533905932, 134.8585786437627 264.0, 134.3 C 261.06689109774175, 143.4391018038745 253.7959054590624, 153.3617873802358 244.0, 156.3 C 242.15697713505543, 157.33755497219602 239.6986111415962, 156.8895402180185 238.3, 159.0 C 240.61820545310073, 170.53182013381286 255.14034625752075, 163.34920866888507 262.0, 170.17641414212952 C 262.93976099354444, 170.60337858300278 263.9582607693139, 170.90751715995876 265.0, 170.89725612529807 C 269.01688273853955, 171.1320096020256 268.98380378100074, 166.6029119152332 269.7, 164.0 " fill="rgb(228, 95, 3)" /><path d="M 267.0, 192.7 C 270.7566793060639, 187.5118707911313 269.00187292438, 180.04080946157208 270.7, 174.0 C 270.7, 171.33333333333331 270.7, 168.6666666666667 270.7, 166.0 C 268.37821734968287, 163.85618019659123 264.3617685709983, 165.57749743855854 263.0, 168.02841245925828 C 260.89107163818886, 167.5858217371623 260.14963296591014, 170.04035129136906 258.0, 169.3 C 254.04791489695322, 173.020130080877 246.5687068830004, 171.55682648616425 244.0, 176.3 C 237.80042043600574, 173.5998036857286 238.94206035913382, 182.10253762362728 243.0, 184.7 C 249.31129690106943, 189.83408088267757 256.1659856670431, 193.6562977554199 265.0, 192.7 Q 266.0, 192.7 267.0, 192.7 " fill="rgb(228, 95, 3)" /><path d="M 47.018023135467416, 218.0 C 49.464582161832915, 216.5978290071756 49.540198447051516, 213.47344182292233 49.7, 211.0 C 55.05110676035711, 208.09427581517033 61.54098261811002, 204.6365956646292 64.7, 199.0 C 69.62760975909237, 195.4608552384579 63.22483040835, 194.65217993193136 60.0, 195.3 C 58.33333333333334, 195.29999999999995 56.66666666666664, 195.3 55.0, 195.3 C 52.00000000000002, 195.30000000000007 48.999999999999986, 195.29999999999995 46.0, 195.3 C 45.63005938461588, 191.97188408369848 41.84791812243095, 191.6491555156423 39.0, 192.05346045326405 C 38.163043030479415, 190.34702870076336 36.35138995480273, 191.6688297540327 35.0, 191.3 C 34.62038384285648, 198.42218828979543 38.33143810192805, 206.3035069773669 41.3, 213.0 Q 40.94644660940672, 214.14142135623734 42.0, 214.7 C 43.44250926413959, 215.71125223822773 44.020793288629804, 219.6587560507926 47.018023135467416, 218.0 " fill="rgb(228, 95, 3)" /><path d="M 61.0, 237.7 C 62.60000000000001, 237.13333333333335 61.123809523809484, 236.5666666666666 60.7, 236.0 C 68.90153017682395, 231.61860812847337 71.34315537644119, 222.357234710627 74.7, 215.0 C 77.20912114271758, 209.65601394933333 69.53965181633149, 211.56655324896244 67.0, 213.3 C 63.106615474460746, 216.36213037852642 58.288305553962196, 217.19129332435867 54.0, 219.3 C 52.12539680902443, 218.2448311998291 51.02148211121284, 216.31749669357256 49.0, 215.32708956709126 C 45.88063344774515, 213.4478960461912 42.221327197512764, 217.92325311789781 45.86780000249136, 220.0 Q 44.649031524264714, 221.0238590690966 46.0, 221.7 C 50.369059099028625, 227.11180932385454 54.69357036499728, 234.06023086171405 61.0, 237.7 " fill="rgb(228, 95, 3)" /><path d="M 124.7, 97.0 C 124.69999999999993, 94.66666666666664 124.69999999999995, 92.33333333333331 124.7, 90.0 C 125.5029996892678, 88.31822298805709 123.60434174522554, 84.35949469117939 123.3, 88.0 C 123.29999999999994, 90.33333333333333 123.29999999999995, 92.66666666666666 123.3, 95.0 C 122.49700031073222, 96.68177701194298 124.39565825477442, 100.64050530882056 124.7, 97.0 " fill="rgb(233, 135, 3)" /><path d="M 213.0, 174.32845265000373 C 214.3406821681222, 173.88573164705699 215.7699494001705, 171.7310280334634 217.0, 173.7 C 218.27875113580876, 173.95208064818613 219.95208064818627, 172.27875113580896 219.7, 171.0 C 220.19796778186333, 170.40152715474827 221.22165705248514, 170.0208152801713 220.7, 169.0 C 221.91912825753087, 168.36690827108396 221.77795087318788, 167.17035949633086 221.7, 166.0 C 224.43370693599522, 158.44141934926182 222.1371204257829, 149.56458035824613 216.0, 144.3 C 207.80845328143255, 136.3295903045859 190.8335652705804, 137.30442183304237 185.3, 148.0 C 184.70226312133113, 149.0285516530402 182.81369576164286, 149.5224238141176 183.3, 151.0 C 181.85102279216125, 151.90217806026396 181.8085078193529, 154.64104970192957 183.0, 155.7 C 191.45546307270425, 160.07990741641237 199.8236304742098, 164.6705652261688 208.3, 169.0 C 212.2688993320012, 169.09540578981512 208.63832600443243, 175.2195983499436 213.0, 174.32845265000373 " fill="rgb(233, 135, 3)" /><path d="M 80.0, 191.7 C 81.29886731363695, 190.40899916041397 82.55977759525601, 189.07045917462494 84.0, 187.93452487806152 C 93.31600667933148, 185.80499081851596 99.45079253650373, 176.03859531846285 108.29850801994255, 172.0 C 110.31447368887439, 169.57225003654779 107.96779966287453, 166.33686483071915 109.7, 164.0 C 109.95208064818627, 162.7212488641911 108.27875113580896, 161.0479193518137 107.0, 161.3 C 103.40700707841967, 157.04125561638185 98.48363671212708, 155.99432650286363 93.0, 156.3 C 89.48978452785538, 155.7348975540825 87.00824067748391, 157.65322808867813 84.0, 158.3 C 72.08888931990701, 164.00303220743086 68.32426946712562, 184.54252606210048 80.0, 191.7 " fill="rgb(233, 135, 3)" /><path d="M 45.0, 195.7 C 46.044234755389624, 192.31678199188846 43.10048488012669, 188.1610223742102 43.7, 184.0 C 38.86830821569106, 155.47125923054554 43.231862512032855, 125.13535982555614 57.7, 102.0 C 59.10274506576436, 99.02875128096078 59.58359314336981, 95.67564032631519 61.7, 93.0 C 60.846325327718, 90.83615682542232 64.33630794602391, 89.13101684232217 62.0, 87.3 C 57.87537670117211, 88.24635439245658 55.84218977510095, 93.12539302599946 53.0, 96.3 C 51.31530447653023, 97.20830180517869 51.694119587837, 98.97133770138302 50.3, 100.0 C 51.10569575503291, 101.80513462967211 49.12667330112968, 102.4568012098155 49.3, 104.0 C 36.058144412772144, 128.65175993862485 30.215050993572664, 157.89218153504237 33.3, 188.0 C 35.21101335826883, 188.6764867011403 33.388151368048376, 190.89959521183545 35.0, 191.7 C 37.93350137485021, 192.05580402859147 39.83292457729745, 194.90809360555215 43.0, 194.7 C 44.06785948852017, 194.06476818168824 44.334996597270234, 195.36265119231217 45.0, 195.7 " fill="rgb(249, 214, 87)" /><path d="M 186.7, 202.0 C 186.8733266988703, 200.45680120981564 184.89430424496717, 199.80513462967212 185.7, 198.0 C 184.41879611414913, 197.39262083822683 184.6958556761746, 196.1397878225932 184.7, 195.0 C 183.15888438681878, 193.69889211536224 183.23428777290636, 191.72820013739326 182.0, 190.3 C 178.85213134504372, 188.3236531789119 176.00905930575405, 185.61146223451584 173.0, 183.3 C 161.93246582572166, 185.13695808053367 150.76046814245075, 186.72171894088405 140.0, 189.3 Q 139.0, 189.3 138.0, 189.3 C 135.2998863875821, 191.67667011320114 133.45386356682735, 194.40711621580712 132.0, 197.3 C 130.96783875270384, 199.00718583149208 129.87309350011512, 200.68844851920446 130.3, 203.0 C 129.80203221813662, 203.5984728452518 128.7783429475148, 203.97918471982857 129.3, 205.0 C 128.54982802543688, 207.78213592676738 130.43915060575665, 209.47095741109212 130.3, 212.0 C 132.49689823123754, 226.72966323191724 148.5536537910546, 234.68474987849154 163.0, 232.7 C 176.01635824024143, 229.25998741710083 189.05173656582068, 217.3960974459786 186.7, 202.0 " fill="rgb(252, 232, 145)" /><path d="M 228.7, 279.0 C 229.17227334445056, 273.39088417029444 227.63518537670905, 266.94946363337095 229.7, 262.0 C 226.1657718531024, 259.30551494166593 224.77876827062954, 255.72162034728643 223.0, 252.3 Q 222.50000000000003, 252.80000000000004 222.0, 253.3 C 217.3156437692292, 253.7858890936362 214.0945455624064, 257.8043955539391 209.0, 257.3 Q 207.60000000000002, 258.0 209.0, 258.7 C 209.47414838097234, 259.83953494589844 210.5701271650021, 259.4778384992407 211.3, 260.0 C 214.74721117251994, 261.2536700553914 217.55930848457396, 264.0406406063702 220.3, 267.0 C 222.57729141463452, 270.3565466561198 225.28085108426714, 273.5365272198101 227.3, 277.0 C 226.4970003107325, 278.6817770119429 228.3956582547742, 282.6405053088203 228.7, 279.0 " fill="rgb(233, 135, 3)" /><path d="M 245.0, 297.7 C 246.29073344049124, 295.1571092361998 247.81235149036044, 292.7098540089471 248.7, 290.0 C 251.14631300760715, 286.65627342160536 251.97103822616373, 282.6408631884075 253.7, 279.0 C 252.04442562386564, 277.48582004799437 249.39553076475747, 275.16921032749275 247.3, 277.0 C 247.1362698720404, 282.7034169267583 242.82807472776835, 286.6901402349792 239.3, 291.0 C 239.67996022615608, 293.1895115943427 242.35061293247747, 295.3504780351412 244.3, 296.0 Q 243.94644660940673, 297.1414213562373 245.0, 297.7 " fill="rgb(233, 135, 3)" /><path d="M 275.0, 318.7 C 279.09885853216105, 313.8251789425968 281.11732640617146, 308.08863185955335 284.7, 303.0 C 283.1361077002051, 302.513064381988 284.3575375903651, 300.8724105373173 283.0, 300.3 C 279.90000000000003, 297.1999999999999 276.7999999999998, 294.0999999999999 273.7, 291.0 L 273.0, 290.3 C 272.3315910858137, 293.0468252331549 268.5999654609861, 294.5248245602741 268.0, 297.3 C 264.0843340863513, 299.82884580546903 260.3935541009285, 302.9006142688476 256.3, 305.0 Q 256.8585786437628, 306.0535533905933 258.0, 305.7 C 258.4741483809724, 306.8395349458985 259.57012716500196, 306.4778384992407 260.3, 307.0 C 264.9070771353053, 310.4691071652176 269.5076086979706, 313.95401674067585 274.0, 317.7 Q 274.5, 318.2 275.0, 318.7 " fill="rgb(233, 135, 3)" /><path d="M 293.7, 349.0 C 294.4666666666667, 348.2333333333335 295.23333333333323, 347.4666666666664 296.0, 346.7 C 302.5517811227047, 346.888735657734 293.8742567979247, 334.54529403573605 300.0, 337.7 C 300.64484448916807, 333.87769951032686 298.343984043444, 328.83558881563283 296.7, 325.0 Q 297.0535533905932, 323.85857864376266 296.0, 323.3 C 294.8530151458631, 324.1010456924953 295.5756585232121, 325.67651675506784 294.0, 326.3 C 291.42215469315346, 329.3110835627267 288.3959729028807, 331.2397871066587 285.3, 333.0 L 285.0, 333.3 C 284.34733584969285, 334.1663242382251 285.40481697007107, 336.4474012321069 286.0, 337.7 C 285.93400779622465, 340.0068274095099 287.40901103788497, 341.6753536059646 287.3, 344.0 C 287.0278232372326, 345.02868204973623 287.78833734765453, 346.48511866488644 287.0, 347.3 C 285.55627525370477, 345.3927242260422 282.4626809599867, 346.0615411481115 281.3, 348.0 C 284.1633648917485, 349.4199731454721 281.86274188734166, 354.3594981038983 285.0, 354.7 C 288.3576177982364, 353.9047870948853 290.7956215332628, 350.8894294462208 293.7, 349.0 " fill="rgb(233, 135, 3)" /><path d="M 112.7, 308.0 C 113.01689281373106, 306.9200630998364 111.78275593665353, 304.06428904422125 114.0, 304.7 C 114.03636302781467, 300.57012650857007 113.39016748039606, 294.2114633283466 113.7, 289.0 C 114.83108903380098, 287.1923700431366 114.03102095765978, 284.58482862026153 115.7, 283.0 C 115.43492486463516, 281.4187977630931 117.49789637954098, 280.80190402256534 116.7, 279.0 Q 116.14142135623733, 277.94644660940685 115.0, 278.3 C 113.84083150001636, 279.38713776942797 112.51615196012871, 280.0746965415971 111.0, 280.3 C 108.90776808585169, 275.01450540157134 115.06883771515608, 270.6222663969955 114.0, 266.3 C 110.86116548182247, 267.1065806975009 108.98625417456796, 264.86178083739287 106.0, 265.3 C 103.29027831741345, 269.2551265890764 102.80741764486989, 274.13264921003247 102.3, 279.0 C 101.31749696951692, 281.7700461218155 100.2328484788793, 286.3228870517981 102.3, 289.0 Q 101.94644660940673, 290.1414213562373 103.0, 290.7 C 104.37919592447271, 289.8107220895342 105.15016451166872, 287.4530534924091 107.0, 287.7 C 109.7817369005957, 293.76671826531697 107.69714297267144, 301.84913675880125 111.0, 307.7 C 110.88149239219705, 309.317790827052 113.01065033868522, 310.58017705813126 112.7, 308.0 " fill="rgb(223, 221, 219)" /><path d="M 120.7, 302.0 C 122.53119754820057, 297.95376900572467 121.38964059620405, 292.67618277986213 121.7, 288.0 C 121.32027243301856, 284.53790483266033 120.36945014171421, 288.04625395742505 119.3, 289.0 C 119.16480076783515, 293.79645966350546 117.05644297106294, 298.5051648546108 120.0, 302.7 L 120.7, 302.0 " fill="rgb(223, 221, 219)" /><path d="M 128.7, 312.0 C 127.1888015851969, 307.4878876913904 127.79889854482958, 302.0971060688904 127.69999999999999, 297.0 C 127.47620304588663, 293.60604627560497 125.85166663552016, 296.83653007297414 126.0, 298.3 C 124.66663753053788, 301.99840241081625 124.96885727332631, 307.43920774535394 126.3, 311.0 C 125.72078408458573, 312.57669350164855 129.30537853951287, 315.0655327198185 128.7, 312.0 " fill="rgb(223, 221, 219)" /><path d="M 138.7, 314.0 C 138.69999999999996, 312.33333333333326 138.70000000000002, 310.6666666666667 138.7, 309.0 C 137.6787811172931, 303.4109814288878 134.29475933045813, 309.8655422584211 137.3, 312.0 C 136.49700031073226, 313.68177701194287 138.39565825477433, 317.6405053088205 138.7, 314.0 " fill="rgb(223, 221, 219)" /><path d="M 166.7, 289.0 C 167.67407102041182, 283.84897967692433 165.40051311278026, 280.0431713013996 163.7, 276.0 C 162.77942736946505, 275.4830000569845 162.3697683345052, 273.7325455823308 161.0, 274.3 C 159.68488471776794, 278.75660509746666 164.4317205735462, 283.076946579825 165.0, 287.7 C 164.8516666355201, 289.16346992702574 166.4762030458866, 292.3939537243948 166.7, 289.0 " fill="rgb(249, 214, 87)" /><path d="M 154.7, 286.0 C 154.49395914823955, 283.14253587362003 154.01442219757817, 280.3983575406608 152.7, 278.0 C 153.2792159154143, 276.42330649835145 149.6946214604872, 273.93446728018154 150.3, 277.0 C 151.2892625530469, 279.53304307536257 150.68750511376976, 282.72510820955176 152.3, 285.0 C 150.95904867971532, 287.3887289112834 155.10096547972347, 289.10900316305066 154.7, 286.0 " fill="rgb(249, 214, 87)" /><path d="M 161.7, 301.0 C 162.85402847540658, 297.66584051095947 163.67477909576314, 292.2669613678046 161.7, 289.0 C 161.06429005211305, 287.78366580225156 161.0094728039039, 285.01352561861654 159.0, 285.3 C 158.01117625425974, 289.33979546548244 160.20386314902208, 294.4458894505718 160.3, 299.0 C 159.4970003107323, 300.68177701194304 161.39565825477433, 304.6405053088205 161.7, 301.0 " fill="rgb(249, 214, 87)" /><path d="M 330.7, 282.0 C 331.36666666666656, 281.33333333333326 332.03333333333336, 280.6666666666665 332.7, 280.0 C 331.6846429054185, 277.0063611168542 330.61264182980767, 274.03618493887774 329.7, 271.0 C 328.7440258398554, 269.45316842082804 329.13401243927643, 267.34882164062213 327.7, 266.0 Q 328.05355339059327, 264.8585786437627 327.0, 264.3 C 325.58861282520184, 264.2277249374003 324.155488989789, 266.3144856577123 322.7615172333164, 265.0 C 321.24452531301006, 259.5766982345328 314.98984762965057, 259.5815300469724 311.0, 262.2461168765017 C 309.41253602632463, 263.0836944325865 307.8037849377786, 264.15443847892396 307.0, 265.82368294683204 C 306.2619582105419, 267.46729120123695 306.6817621664962, 269.2989815697602 306.9225437237282, 271.0 C 307.31017317611537, 273.1619796310723 303.2307662865405, 272.3656459767663 302.3, 274.0 C 303.6758464074418, 276.8409691518887 304.36819109224126, 279.96505398720177 306.0, 282.7 C 306.245179441378, 283.87458572508183 306.9297989749531, 284.8671494041247 308.0, 285.7 C 315.95388818357054, 286.6890801990519 324.56504352734555, 287.77707236802786 330.7, 282.0 " fill="rgb(246, 183, 19)" /><path d="M 173.7, 83.0 C 173.69999999999993, 80.66666666666663 173.69999999999996, 78.33333333333333 173.7, 76.0 C 174.50299968926765, 74.31822298805703 172.60434174522564, 70.35949469117942 172.3, 74.0 C 172.29999999999995, 76.33333333333331 172.29999999999998, 78.66666666666663 172.3, 81.0 C 171.49700031073215, 82.6817770119429 173.3956582547745, 86.64050530882058 173.7, 83.0 " fill="rgb(233, 135, 3)" /><path d="M 269.0, 174.7 C 270.5905100335796, 172.02882766244542 269.2651022526693, 168.14984261936394 269.7, 165.0 L 269.0, 164.3 C 262.24692469943636, 167.21145961651192 252.29635438439126, 166.99369881292415 245.0, 165.3 L 244.3, 166.0 C 244.30000000000013, 169.00000000000006 244.29999999999987, 171.99999999999997 244.3, 175.0 L 244.3, 176.0 C 252.6675056782023, 177.37660574500916 261.3572421433303, 178.31554978967387 269.0, 174.7 " fill="rgb(233, 135, 3)" /><path d="M 51.0, 219.7 Q 52.0, 219.7 53.0, 219.7 C 54.309619505310586, 218.12684924154505 50.791310432521456, 216.34131367257544 51.7, 214.0 C 50.40141739668529, 210.61838411856013 48.95199323860826, 211.89689691827053 46.0, 212.3 C 42.5919661275482, 213.3185175571376 41.4000994923178, 215.08269260729583 44.3, 218.0 C 43.732545582330665, 219.36976833450518 45.48300005698453, 219.77942736946488 46.0, 220.7 C 48.07196455786018, 221.34514233238727 49.27264430882408, 219.88681706727596 51.0, 219.7 " fill="rgb(249, 214, 87)" /><path d="M 182.3, 156.0 C 180.6760933752638, 166.02958857150247 184.31083823699802, 174.84192335766312 193.0, 179.7 C 202.0849590394373, 182.85033396857614 212.69238384972724, 179.57336737845793 217.7, 172.0 C 222.87473009496816, 160.8366324794674 218.20085210040787, 146.0982580723817 206.0, 142.3 C 195.36293393594806, 140.38729800902254 185.6566954288757, 146.62692473883578 182.3, 156.0 " fill="rgb(254, 254, 254)" /><path d="M 111.7, 189.0 C 112.19796778186335, 188.4015271547483 113.22165705248517, 188.0208152801712 112.7, 187.0 C 114.60069402102944, 183.84272766973277 115.93762940970623, 178.50354044232773 113.7, 175.0 C 112.7442712130551, 165.375132406081 103.61388387587846, 159.3059314142748 94.0, 159.3 C 85.60808188400382, 160.9127171958899 77.91271719588995, 168.60808188400378 76.3, 177.0 C 76.69221997787116, 178.9756083531898 75.35431585767067, 181.6678575723893 77.3, 183.0 C 77.96225442785851, 199.44313395812136 104.51012832256816, 205.13728592773646 111.7, 189.0 " fill="rgb(254, 254, 254)" /><path d="M 158.0, 195.7 C 162.52828887932196, 191.74366257945343 169.0766857327083, 189.20714514042277 172.0, 183.7 C 173.57686886687446, 181.7827771355361 173.7534536476564, 180.1260654484854 172.7, 178.0 C 171.46666666666667, 176.7666666666667 170.2333333333334, 175.53333333333342 169.0, 174.3 C 158.19440500111443, 174.01370027167303 147.48092958838055, 173.94979689759413 139.3, 180.0 Q 138.8, 180.50000000000003 138.3, 181.0 C 137.12541427491843, 181.24517944137793 136.1328505958754, 181.92979897495306 135.3, 183.0 C 135.29999999999995, 183.9999999999999 135.30000000000004, 185.00000000000006 135.3, 186.0 C 140.27993165808724, 192.73071717760487 147.40235332372885, 194.2890059217224 155.0, 194.7 Q 155.50000000000003, 195.2 156.0, 195.7 L 157.0, 195.7 L 158.0, 195.7 " fill="rgb(3, 3, 3)" /><path d="M 183.0, 194.7 C 184.99999999999994, 194.6999999999999 186.99999999999997, 194.6999999999999 189.0, 194.7 C 200.26941400382537, 189.90092637890103 213.19467111149348, 195.80945736714 224.7, 194.0 C 221.63610073904852, 191.55287877706988 217.90334954765592, 190.72050895583013 214.0, 190.3 C 212.32854540867356, 189.9782257393158 210.04508367593726, 191.1339674196926 209.0, 189.3 C 197.346771589164, 190.6576881299102 184.73486664205734, 189.7009263640273 174.3, 194.0 C 176.6913867489382, 196.10256867257354 180.27808851341612, 196.10691966100248 183.0, 194.7 " fill="rgb(172, 29, 27)" /><path d="M 163.0, 217.7 C 164.80513462967204, 216.89430424496683 165.45680120981555, 218.87332669887047 167.0, 218.7 C 170.4820438385775, 218.87184479565622 173.17083318802682, 217.1286038452458 175.7, 215.0 C 176.3666666666666, 214.3333333333333 177.03333333333325, 213.6666666666666 177.7, 213.0 C 177.7, 211.66666666666669 177.70000000000005, 210.33333333333346 177.7, 209.0 C 178.26745441766937, 207.63023166549488 176.51699994301543, 207.22057263053486 176.0, 206.3 C 174.6424624096349, 206.87241053731762 175.86389229979483, 208.51306438198785 174.3, 209.0 C 174.56384648908178, 214.87224867451803 165.57876949809506, 216.47650658584712 163.0, 211.3 C 160.5968692453774, 206.4097912675564 160.66553060623434, 200.49573271751453 159.0, 195.3 C 157.79842513814742, 195.61000506590239 156.04609531147776, 194.5903700261989 155.3, 196.0 C 155.70627829393325, 197.63645187467938 156.85151046706915, 198.9668190306248 156.3, 201.0 C 157.90895461374643, 203.80495369853443 157.137482096457, 207.59591259898482 157.3, 211.0 C 157.38397210556414, 213.78234999151215 155.39823772045492, 217.7746423995322 152.0, 217.3 C 148.64404945751699, 219.61030052981366 144.85983847285945, 215.1256248861629 143.0, 212.3 C 141.63042636667555, 214.06770584769512 141.8661693713323, 217.41994558169085 144.0, 218.7 C 146.33868227055356, 221.29656223146722 149.56927265897673, 221.7398677883833 153.0, 221.7 C 157.6905912983093, 222.45631921967458 159.34018296555112, 212.1999817639989 163.0, 217.7 " fill="rgb(172, 29, 27)" /><path d="M 101.0, 213.7 C 109.73419573147626, 209.72495839665973 118.15771592052147, 204.99987968528535 128.0, 203.7 Q 128.50000000000003, 203.2 129.0, 202.7 C 132.65856916987178, 202.49327679044484 136.02101932925268, 201.57165904968613 138.7, 199.0 C 136.68605656161776, 197.4322747527039 133.4900493904019, 198.7183038008036 131.0, 198.3 C 118.95213075540579, 203.5096787309094 105.75147681256422, 205.9362890088139 95.3, 215.0 Q 95.85857864376274, 216.05355339059335 97.0, 215.7 C 98.88175636026152, 216.35734364286097 99.11735723138355, 213.0405163780667 101.0, 213.7 " fill="rgb(172, 29, 27)" /><path d="M 220.7, 207.0 C 211.14307885623825, 198.4433072475599 196.83417837127018, 201.3589074687771 185.0, 198.3 Q 183.85857864376268, 197.94644660940673 183.3, 199.0 C 181.79706260114406, 199.73669877514357 179.71343325962013, 199.07148318673666 178.0, 199.3 Q 176.85857864376266, 198.94644660940673 176.3, 200.0 C 189.00012192379683, 203.52061954984828 203.5057979600012, 202.6822458739242 216.0, 206.7 C 217.95387230011397, 205.55340714260268 219.23123405873145, 209.20716934664685 220.7, 207.0 " fill="rgb(172, 29, 27)" /><path d="M 105.7, 228.0 C 116.24498492601774, 219.56816310397465 127.584197492978, 213.05376135032404 138.7, 206.0 C 137.64935974580607, 204.5208687031321 135.5158404976156, 205.65603855997975 134.0, 205.3 C 133.33499659727036, 205.637348807688 133.06785948852, 206.93523181831188 132.0, 206.3 Q 131.5, 206.8 131.0, 207.3 L 130.0, 207.3 C 120.4491152344942, 213.57381190626504 109.46760795028548, 219.21806060260334 102.3, 229.0 C 103.37170869526868, 230.9051845082755 104.84253560233738, 228.86663532397384 105.7, 228.0 " fill="rgb(172, 29, 27)" /><path d="M 323.7, 270.0 C 324.3666666666665, 269.3333333333333 325.0333333333333, 268.66666666666663 325.7, 268.0 C 325.9253034584028, 266.4838480398713 326.6128622305721, 265.15916849998365 327.7, 264.0 C 326.68464290541857, 261.00636111685435 325.61264182980756, 258.0361849388777 324.7, 255.0 C 324.639728642989, 252.89024419481865 323.7070456854333, 251.14185310655415 323.0, 249.3 C 320.4038816652008, 251.08433178979035 318.62900204207386, 249.70444571074597 318.0, 246.67493533727443 C 315.31587428647094, 244.81970637507737 312.63163987529043, 247.9995407925898 311.0, 249.8830992240788 C 310.16624915547635, 250.89761853548123 309.39487938736943, 251.96062994509577 308.59304927160946, 253.0 C 306.62449778071755, 252.49142776504002 305.68142524757366, 254.19127821394517 304.0, 254.2731937618849 C 302.0564559794917, 253.9858671882125 300.8111821445469, 255.28483486531903 299.3, 256.0 C 298.5679984976677, 259.7420176392057 300.8495752913069, 262.3295211366454 300.07956929300406, 266.0 C 299.77779093690935, 268.92176505823903 301.0089510895871, 271.66360754539744 303.0, 273.7 C 310.34119248300294, 275.71725257435315 318.2774886074011, 274.91868384088724 323.7, 270.0 " fill="rgb(228, 95, 3)" /><path d="M 212.0, 153.3 C 211.2333333333335, 152.53333333333345 210.46666666666647, 151.7666666666666 209.7, 151.0 C 208.4390235122437, 149.82531512207768 207.36945174033835, 148.18853838324506 205.7, 148.0 C 202.58864409862116, 146.34066730415057 198.33622235834267, 145.5156655960282 195.0, 147.3 C 193.60579757153752, 147.478294315439 192.50933407709041, 148.375394003425 191.3, 149.0 C 187.5366029912147, 151.8228301388838 190.57941958306276, 153.0153020375903 193.3, 152.0 C 196.85557790946567, 154.4051767383902 196.75358643335392, 158.57639266091408 193.22422107034598, 161.0 C 188.82248557805298, 163.09130425659086 186.18188741007802, 158.81446597800124 186.0, 155.3 C 179.7236046218424, 165.98692958636283 190.27948741583384, 180.8340381913305 203.0, 177.7 C 212.99447231078952, 175.0515377087246 218.10567839779515, 161.86032429883173 212.0, 153.3 " fill="rgb(3, 3, 3)" /><path d="M 110.7, 173.0 C 107.48216307016231, 166.29347971424048 98.99113839083573, 162.00315485328832 92.0, 165.3 C 90.52242381411753, 164.81369576164283 90.02855165304018, 166.70226312133104 89.0, 167.3 C 87.57997019391158, 166.9771670679504 84.98808144068656, 169.614971905383 87.0, 170.7 C 89.61072983362033, 167.58703145369805 94.69737990307082, 171.38060613841475 93.3, 175.0 C 94.02724612759701, 177.65153358997605 91.4277583232092, 178.08840278148668 90.0, 179.26256692721526 C 86.0594989666815, 180.9415958723124 85.36604605166369, 175.84855572834212 83.0, 175.3 C 78.64160254814992, 186.53180597828396 89.34755611196275, 198.10063786264044 101.0, 195.7 C 109.75698012368437, 192.30379068711625 115.86263152433696, 181.45050426509388 110.7, 173.0 " fill="rgb(3, 3, 3)" /><path d="M 150.0, 183.7 C 154.48270757633628, 182.26397149210666 159.59861893435328, 182.35663214169247 163.7, 180.0 C 162.9271593655607, 176.41195185484946 158.16054275467442, 176.43969997178516 155.0, 176.3 C 151.08183609369624, 178.1561484510558 146.0823218283717, 177.40168619968648 143.3, 182.0 C 145.02851849044058, 184.7271763813092 147.53961527686894, 185.1866512966928 150.0, 183.7 " fill="rgb(254, 254, 254)" /><path d="M 302.7, 272.0 L 302.7, 271.0 C 301.0567515813969, 265.9364590544067 301.1265256152966, 260.1633609763373 299.0, 255.3 L 298.7, 255.0 Q 298.14142135623734, 253.9464466094068 297.0, 254.3 C 296.56666666666683, 253.86666666666676 296.1333333333334, 253.43333333333345 295.7, 253.0 C 292.5074952337141, 251.66414036255262 295.8107331403662, 256.41113256112016 295.3, 258.0 C 297.2079013272409, 262.23341066520885 299.3642976913741, 266.3638913159548 300.3, 271.0 C 301.36945014171425, 271.95374604257506 302.3202724330186, 275.4620951673396 302.7, 272.0 " fill="rgb(233, 135, 3)" /><path d="M 318.7, 252.0 C 320.4076710636509, 251.09899337131654 322.343674716166, 250.7492303754 323.7, 249.0 C 321.1391632114526, 245.11792428725812 321.65054341788635, 239.96329462864227 321.7, 235.0 C 322.5612655861537, 223.98146850449794 308.37777121713407, 225.18075430838806 302.0, 229.6898246422725 C 298.7627455741478, 231.40847972443964 299.1433915608038, 235.18503256055652 298.3, 238.0 C 298.30000000000007, 242.0 298.29999999999995, 245.99999999999997 298.3, 250.0 C 299.83471362821626, 251.81597321585232 298.68153695965543, 254.35352119586733 299.0, 255.7 C 306.01070509606933, 255.53867026514558 313.5727217313717, 256.7083243254 318.7, 252.0 " fill="rgb(246, 183, 19)" /><path d="M 321.0, 234.7 C 322.5490823620517, 233.0116677590411 321.2951046384068, 230.1622700144398 321.7, 228.0 C 322.43979396514135, 224.75079777511294 322.4197455213059, 221.18685851916138 325.0, 218.7 C 325.4081656127876, 215.53746445682032 318.3880784281295, 218.08074750561335 316.0, 218.3 C 311.0887647476786, 218.69517865054254 307.0354881549769, 217.0190618690761 303.0, 215.3 C 300.7842163438256, 218.4597224185881 300.6875809907566, 222.49722480500228 299.3, 226.0 C 300.0284034443832, 230.10645243966727 297.62621079669714, 232.91616951968717 298.3, 237.0 C 299.8112913972607, 237.70035439308646 301.0558520643095, 239.04465373255252 303.0, 238.7 C 309.63689524767904, 238.90426781142438 316.4217545284515, 239.46575239828644 321.0, 234.7 " fill="rgb(228, 95, 3)" /><path d="M 325.0, 217.7 C 327.01305612934, 215.593449097067 329.00099616954463, 213.42626259110958 332.0, 213.7 C 332.60737916177317, 212.41879611414927 333.86021217740705, 212.69585567617466 335.0, 212.7 Q 336.4, 212.0 335.0, 211.3 C 333.0787784085434, 211.91851431198637 331.91511621809485, 210.40331816194646 330.96043286838216, 209.0 C 335.2153345986492, 205.3400452441715 335.1172302121441, 198.95895149581037 329.967718208726, 196.0 C 329.339599691328, 195.55516568423775 328.6978487309272, 195.117435475861 328.0, 194.78707929142863 C 325.7249856333196, 193.45932620891318 322.9205628568419, 194.05368976663664 321.0, 195.70674369468293 C 318.4185955432902, 199.1232873058216 319.30462040723603, 193.19840295839808 317.3, 195.0 C 315.2785589055359, 196.6149032856191 313.0489442336355, 197.7272310972642 311.3, 200.0 C 311.450588390595, 202.6146605035512 307.16388788696895, 203.39133576694846 307.3, 206.0 C 306.20417275406106, 206.9636572238668 305.2022580666829, 207.96621430316682 305.0, 209.3 C 303.9678387527038, 211.0071858314921 302.87309350011515, 212.68844851920446 303.3, 215.0 C 305.7929348942476, 216.41942560118946 308.2722896020028, 217.87163667278833 311.3, 218.0 C 315.7543189843005, 220.38670335376185 320.26033050124335, 216.948308652319 325.0, 217.7 " fill="rgb(246, 183, 19)" /><path d="M 336.0, 212.7 Q 336.50000000000006, 212.2 337.0, 211.7 C 345.8467225886567, 212.7386510151517 354.22991485911035, 203.4869052905362 352.0, 195.3 L 351.3, 196.0 C 343.35311541124213, 187.43651276133744 327.6098025679119, 187.13543247382833 318.3, 194.0 Q 318.3, 195.0 318.3, 196.0 C 320.660820255996, 204.04086971671617 329.0595757350619, 209.41496758060006 336.0, 212.7 " fill="rgb(228, 95, 3)" /></svg>